<svg width="198" height="30" viewBox="0 0 198 30" fill="none" xmlns="http://www.w3.org/2000/svg">
<rect width="198" height="30" rx="10" fill="#0B5CA6"/>
<path d="M39.0114 20V8.36364H43.6705C44.5265 8.36364 45.2405 8.49053 45.8125 8.74432C46.3845 8.99811 46.8144 9.35038 47.1023 9.80114C47.3902 10.2481 47.5341 10.7633 47.5341 11.3466C47.5341 11.8011 47.4432 12.2008 47.2614 12.5455C47.0795 12.8864 46.8295 13.1667 46.5114 13.3864C46.197 13.6023 45.8371 13.7557 45.4318 13.8466V13.9602C45.875 13.9792 46.2898 14.1042 46.6761 14.3352C47.0663 14.5663 47.3826 14.8902 47.625 15.3068C47.8674 15.7197 47.9886 16.2121 47.9886 16.7841C47.9886 17.4015 47.8352 17.9527 47.5284 18.4375C47.2254 18.9186 46.7765 19.2992 46.1818 19.5795C45.5871 19.8598 44.8542 20 43.983 20H39.0114ZM41.4716 17.9886H43.4773C44.1629 17.9886 44.6629 17.858 44.9773 17.5966C45.2917 17.3314 45.4489 16.9792 45.4489 16.5398C45.4489 16.2178 45.3712 15.9337 45.2159 15.6875C45.0606 15.4413 44.839 15.2481 44.5511 15.108C44.267 14.9678 43.928 14.8977 43.5341 14.8977H41.4716V17.9886ZM41.4716 13.233H43.2955C43.6326 13.233 43.9318 13.1742 44.1932 13.0568C44.4583 12.9356 44.6667 12.7652 44.8182 12.5455C44.9735 12.3258 45.0511 12.0625 45.0511 11.7557C45.0511 11.3352 44.9015 10.9962 44.6023 10.7386C44.3068 10.4811 43.8864 10.3523 43.3409 10.3523H41.4716V13.233ZM52.0327 20.1648C51.4759 20.1648 50.9796 20.0682 50.544 19.875C50.1084 19.678 49.7637 19.3883 49.5099 19.0057C49.2599 18.6193 49.1349 18.1383 49.1349 17.5625C49.1349 17.0777 49.224 16.6705 49.402 16.3409C49.58 16.0114 49.8224 15.7462 50.1293 15.5455C50.4361 15.3447 50.7846 15.1932 51.1747 15.0909C51.5687 14.9886 51.9815 14.9167 52.4134 14.875C52.9209 14.822 53.33 14.7727 53.6406 14.7273C53.9512 14.678 54.1766 14.6061 54.3168 14.5114C54.4569 14.4167 54.527 14.2765 54.527 14.0909V14.0568C54.527 13.697 54.4134 13.4186 54.1861 13.2216C53.9626 13.0246 53.6444 12.9261 53.2315 12.9261C52.7959 12.9261 52.4493 13.0227 52.1918 13.2159C51.9342 13.4053 51.7637 13.6439 51.6804 13.9318L49.4418 13.75C49.5554 13.2197 49.7789 12.7614 50.1122 12.375C50.4455 11.9848 50.8755 11.6856 51.402 11.4773C51.9323 11.2652 52.5459 11.1591 53.2429 11.1591C53.7277 11.1591 54.1918 11.2159 54.6349 11.3295C55.0819 11.4432 55.4777 11.6193 55.8224 11.858C56.1709 12.0966 56.4455 12.4034 56.6463 12.7784C56.8471 13.1496 56.9474 13.5947 56.9474 14.1136V20H54.652V18.7898H54.5838C54.4437 19.0625 54.2562 19.303 54.0213 19.5114C53.7865 19.7159 53.5043 19.8769 53.1747 19.9943C52.8452 20.108 52.4645 20.1648 52.0327 20.1648ZM52.7259 18.4943C53.0819 18.4943 53.3963 18.4242 53.669 18.2841C53.9418 18.1402 54.1558 17.947 54.3111 17.7045C54.4664 17.4621 54.544 17.1875 54.544 16.8807V15.9545C54.4683 16.0038 54.3641 16.0492 54.2315 16.0909C54.1027 16.1288 53.9569 16.1648 53.794 16.1989C53.6312 16.2292 53.4683 16.2576 53.3054 16.2841C53.1425 16.3068 52.9948 16.3277 52.8622 16.3466C52.5781 16.3883 52.33 16.4545 52.1179 16.5455C51.9058 16.6364 51.741 16.7595 51.6236 16.9148C51.5062 17.0663 51.4474 17.2557 51.4474 17.483C51.4474 17.8125 51.5668 18.0644 51.8054 18.2386C52.0478 18.4091 52.3546 18.4943 52.7259 18.4943ZM62.7685 20.1705C61.8745 20.1705 61.1056 19.9811 60.4616 19.6023C59.8215 19.2197 59.3291 18.6894 58.9844 18.0114C58.6435 17.3333 58.473 16.553 58.473 15.6705C58.473 14.7765 58.6454 13.9924 58.9901 13.3182C59.3385 12.6402 59.8329 12.1117 60.473 11.733C61.1132 11.3504 61.8745 11.1591 62.7571 11.1591C63.5185 11.1591 64.1851 11.2973 64.7571 11.5739C65.3291 11.8504 65.7817 12.2386 66.1151 12.7386C66.4484 13.2386 66.6321 13.8258 66.6662 14.5H64.3821C64.3177 14.0644 64.1473 13.714 63.8707 13.4489C63.598 13.1799 63.2401 13.0455 62.7969 13.0455C62.4219 13.0455 62.0942 13.1477 61.8139 13.3523C61.5374 13.553 61.3215 13.8466 61.1662 14.233C61.0109 14.6193 60.9332 15.0871 60.9332 15.6364C60.9332 16.1932 61.009 16.6667 61.1605 17.0568C61.3158 17.447 61.5336 17.7443 61.8139 17.9489C62.0942 18.1534 62.4219 18.2557 62.7969 18.2557C63.0734 18.2557 63.3215 18.1989 63.5412 18.0852C63.7647 17.9716 63.9484 17.8068 64.0923 17.5909C64.2401 17.3712 64.3366 17.108 64.3821 16.8011H66.6662C66.6283 17.4678 66.4465 18.0549 66.1207 18.5625C65.7988 19.0663 65.3537 19.4602 64.7855 19.7443C64.2173 20.0284 63.545 20.1705 62.7685 20.1705ZM70.4091 17.4886L70.4148 14.5852H70.767L73.5625 11.2727H76.3409L72.5852 15.6591H72.0114L70.4091 17.4886ZM68.2159 20V8.36364H70.6364V20H68.2159ZM73.6705 20L71.1023 16.1989L72.7159 14.4886L76.5057 20H73.6705ZM85.8736 11.2727V13.0909H80.6179V11.2727H85.8736ZM81.8111 9.18182H84.2315V17.3182C84.2315 17.5417 84.2656 17.7159 84.3338 17.8409C84.402 17.9621 84.4967 18.0473 84.6179 18.0966C84.7429 18.1458 84.8868 18.1705 85.0497 18.1705C85.1634 18.1705 85.277 18.161 85.3906 18.142C85.5043 18.1193 85.5914 18.1023 85.652 18.0909L86.0327 19.892C85.9115 19.9299 85.741 19.9735 85.5213 20.0227C85.3016 20.0758 85.0346 20.108 84.7202 20.1193C84.1368 20.142 83.6255 20.0644 83.1861 19.8864C82.7505 19.7083 82.4115 19.4318 82.169 19.0568C81.9266 18.6818 81.8073 18.2083 81.8111 17.6364V9.18182ZM91.2997 20.1705C90.4171 20.1705 89.6539 19.983 89.0099 19.608C88.3698 19.2292 87.8755 18.7027 87.527 18.0284C87.1785 17.3504 87.0043 16.5644 87.0043 15.6705C87.0043 14.7689 87.1785 13.9811 87.527 13.3068C87.8755 12.6288 88.3698 12.1023 89.0099 11.7273C89.6539 11.3485 90.4171 11.1591 91.2997 11.1591C92.1823 11.1591 92.9437 11.3485 93.5838 11.7273C94.2277 12.1023 94.724 12.6288 95.0724 13.3068C95.4209 13.9811 95.5952 14.7689 95.5952 15.6705C95.5952 16.5644 95.4209 17.3504 95.0724 18.0284C94.724 18.7027 94.2277 19.2292 93.5838 19.608C92.9437 19.983 92.1823 20.1705 91.2997 20.1705ZM91.3111 18.2955C91.7126 18.2955 92.0478 18.1818 92.3168 17.9545C92.5857 17.7235 92.7884 17.4091 92.9247 17.0114C93.0649 16.6136 93.1349 16.161 93.1349 15.6534C93.1349 15.1458 93.0649 14.6932 92.9247 14.2955C92.7884 13.8977 92.5857 13.5833 92.3168 13.3523C92.0478 13.1212 91.7126 13.0057 91.3111 13.0057C90.9058 13.0057 90.5649 13.1212 90.2884 13.3523C90.0156 13.5833 89.8092 13.8977 89.669 14.2955C89.5327 14.6932 89.4645 15.1458 89.4645 15.6534C89.4645 16.161 89.5327 16.6136 89.669 17.0114C89.8092 17.4091 90.0156 17.7235 90.2884 17.9545C90.5649 18.1818 90.9058 18.2955 91.3111 18.2955ZM100.918 8.36364H103.952L107.156 16.1818H107.293L110.497 8.36364H113.531V20H111.145V12.4261H111.048L108.037 19.9432H106.412L103.401 12.3977H103.304V20H100.918V8.36364ZM118.001 20.1648C117.445 20.1648 116.948 20.0682 116.513 19.875C116.077 19.678 115.732 19.3883 115.479 19.0057C115.229 18.6193 115.104 18.1383 115.104 17.5625C115.104 17.0777 115.193 16.6705 115.371 16.3409C115.549 16.0114 115.791 15.7462 116.098 15.5455C116.405 15.3447 116.753 15.1932 117.143 15.0909C117.537 14.9886 117.95 14.9167 118.382 14.875C118.89 14.822 119.299 14.7727 119.609 14.7273C119.92 14.678 120.145 14.6061 120.286 14.5114C120.426 14.4167 120.496 14.2765 120.496 14.0909V14.0568C120.496 13.697 120.382 13.4186 120.155 13.2216C119.931 13.0246 119.613 12.9261 119.2 12.9261C118.765 12.9261 118.418 13.0227 118.161 13.2159C117.903 13.4053 117.732 13.6439 117.649 13.9318L115.411 13.75C115.524 13.2197 115.748 12.7614 116.081 12.375C116.414 11.9848 116.844 11.6856 117.371 11.4773C117.901 11.2652 118.515 11.1591 119.212 11.1591C119.696 11.1591 120.161 11.2159 120.604 11.3295C121.051 11.4432 121.446 11.6193 121.791 11.858C122.14 12.0966 122.414 12.4034 122.615 12.7784C122.816 13.1496 122.916 13.5947 122.916 14.1136V20H120.621V18.7898H120.553C120.412 19.0625 120.225 19.303 119.99 19.5114C119.755 19.7159 119.473 19.8769 119.143 19.9943C118.814 20.108 118.433 20.1648 118.001 20.1648ZM118.695 18.4943C119.051 18.4943 119.365 18.4242 119.638 18.2841C119.911 18.1402 120.125 17.947 120.28 17.7045C120.435 17.4621 120.513 17.1875 120.513 16.8807V15.9545C120.437 16.0038 120.333 16.0492 120.2 16.0909C120.071 16.1288 119.926 16.1648 119.763 16.1989C119.6 16.2292 119.437 16.2576 119.274 16.2841C119.111 16.3068 118.964 16.3277 118.831 16.3466C118.547 16.3883 118.299 16.4545 118.087 16.5455C117.875 16.6364 117.71 16.7595 117.592 16.9148C117.475 17.0663 117.416 17.2557 117.416 17.483C117.416 17.8125 117.536 18.0644 117.774 18.2386C118.017 18.4091 118.323 18.4943 118.695 18.4943ZM124.794 20V11.2727H127.214V20H124.794ZM126.01 10.1477C125.65 10.1477 125.341 10.0284 125.084 9.78977C124.83 9.54735 124.703 9.25758 124.703 8.92045C124.703 8.58712 124.83 8.30114 125.084 8.0625C125.341 7.82008 125.65 7.69886 126.01 7.69886C126.37 7.69886 126.677 7.82008 126.93 8.0625C127.188 8.30114 127.317 8.58712 127.317 8.92045C127.317 9.25758 127.188 9.54735 126.93 9.78977C126.677 10.0284 126.37 10.1477 126.01 10.1477ZM131.574 14.9545V20H129.153V11.2727H131.46V12.8125H131.562C131.756 12.3049 132.08 11.9034 132.534 11.608C132.989 11.3087 133.54 11.1591 134.188 11.1591C134.794 11.1591 135.322 11.2917 135.773 11.5568C136.223 11.822 136.574 12.2008 136.824 12.6932C137.074 13.1818 137.199 13.7652 137.199 14.4432V20H134.778V14.875C134.782 14.3409 134.646 13.9242 134.369 13.625C134.093 13.322 133.712 13.1705 133.227 13.1705C132.902 13.1705 132.614 13.2405 132.364 13.3807C132.117 13.5208 131.924 13.7254 131.784 13.9943C131.648 14.2595 131.578 14.5795 131.574 14.9545ZM142.855 20V8.36364H147.446C148.329 8.36364 149.08 8.5322 149.702 8.86932C150.323 9.20265 150.796 9.66667 151.122 10.2614C151.452 10.8523 151.616 11.5341 151.616 12.3068C151.616 13.0795 151.45 13.7614 151.116 14.3523C150.783 14.9432 150.3 15.4034 149.668 15.733C149.039 16.0625 148.277 16.2273 147.384 16.2273H144.457V14.2557H146.986C147.459 14.2557 147.849 14.1742 148.156 14.0114C148.467 13.8447 148.698 13.6155 148.849 13.3239C149.005 13.0284 149.082 12.6894 149.082 12.3068C149.082 11.9205 149.005 11.5833 148.849 11.2955C148.698 11.0038 148.467 10.7784 148.156 10.6193C147.846 10.4564 147.452 10.375 146.974 10.375H145.315V20H142.855ZM155.423 20.1648C154.866 20.1648 154.37 20.0682 153.935 19.875C153.499 19.678 153.154 19.3883 152.901 19.0057C152.651 18.6193 152.526 18.1383 152.526 17.5625C152.526 17.0777 152.615 16.6705 152.793 16.3409C152.971 16.0114 153.213 15.7462 153.52 15.5455C153.827 15.3447 154.175 15.1932 154.565 15.0909C154.959 14.9886 155.372 14.9167 155.804 14.875C156.312 14.822 156.721 14.7727 157.031 14.7273C157.342 14.678 157.567 14.6061 157.707 14.5114C157.848 14.4167 157.918 14.2765 157.918 14.0909V14.0568C157.918 13.697 157.804 13.4186 157.577 13.2216C157.353 13.0246 157.035 12.9261 156.622 12.9261C156.187 12.9261 155.84 13.0227 155.582 13.2159C155.325 13.4053 155.154 13.6439 155.071 13.9318L152.832 13.75C152.946 13.2197 153.17 12.7614 153.503 12.375C153.836 11.9848 154.266 11.6856 154.793 11.4773C155.323 11.2652 155.937 11.1591 156.634 11.1591C157.118 11.1591 157.582 11.2159 158.026 11.3295C158.473 11.4432 158.868 11.6193 159.213 11.858C159.562 12.0966 159.836 12.4034 160.037 12.7784C160.238 13.1496 160.338 13.5947 160.338 14.1136V20H158.043V18.7898H157.974C157.834 19.0625 157.647 19.303 157.412 19.5114C157.177 19.7159 156.895 19.8769 156.565 19.9943C156.236 20.108 155.855 20.1648 155.423 20.1648ZM156.116 18.4943C156.473 18.4943 156.787 18.4242 157.06 18.2841C157.332 18.1402 157.546 17.947 157.702 17.7045C157.857 17.4621 157.935 17.1875 157.935 16.8807V15.9545C157.859 16.0038 157.755 16.0492 157.622 16.0909C157.493 16.1288 157.348 16.1648 157.185 16.1989C157.022 16.2292 156.859 16.2576 156.696 16.2841C156.533 16.3068 156.385 16.3277 156.253 16.3466C155.969 16.3883 155.721 16.4545 155.509 16.5455C155.296 16.6364 155.132 16.7595 155.014 16.9148C154.897 17.0663 154.838 17.2557 154.838 17.483C154.838 17.8125 154.957 18.0644 155.196 18.2386C155.438 18.4091 155.745 18.4943 156.116 18.4943ZM166.148 23.4545C165.364 23.4545 164.691 23.3466 164.131 23.1307C163.574 22.9186 163.131 22.6288 162.801 22.2614C162.472 21.8939 162.258 21.4811 162.159 21.0227L164.398 20.7216C164.466 20.8958 164.574 21.0587 164.722 21.2102C164.869 21.3617 165.064 21.483 165.307 21.5739C165.553 21.6686 165.852 21.7159 166.205 21.7159C166.731 21.7159 167.165 21.5871 167.506 21.3295C167.85 21.0758 168.023 20.6496 168.023 20.0511V18.4545H167.92C167.814 18.697 167.655 18.9261 167.443 19.142C167.231 19.358 166.958 19.5341 166.625 19.6705C166.292 19.8068 165.894 19.875 165.432 19.875C164.777 19.875 164.18 19.7235 163.642 19.4205C163.108 19.1136 162.682 18.6458 162.364 18.017C162.049 17.3845 161.892 16.5852 161.892 15.6193C161.892 14.6307 162.053 13.8049 162.375 13.142C162.697 12.4792 163.125 11.983 163.659 11.6534C164.197 11.3239 164.786 11.1591 165.426 11.1591C165.915 11.1591 166.324 11.2424 166.653 11.4091C166.983 11.572 167.248 11.7765 167.449 12.0227C167.653 12.2652 167.811 12.5038 167.92 12.7386H168.011V11.2727H170.415V20.0852C170.415 20.8277 170.233 21.4489 169.869 21.9489C169.506 22.4489 169.002 22.8239 168.358 23.0739C167.718 23.3277 166.981 23.4545 166.148 23.4545ZM166.199 18.0568C166.589 18.0568 166.919 17.9602 167.188 17.767C167.46 17.5701 167.669 17.2898 167.812 16.9261C167.96 16.5587 168.034 16.1193 168.034 15.608C168.034 15.0966 167.962 14.6534 167.818 14.2784C167.674 13.8996 167.466 13.6061 167.193 13.3977C166.92 13.1894 166.589 13.0852 166.199 13.0852C165.801 13.0852 165.466 13.1932 165.193 13.4091C164.92 13.6212 164.714 13.9167 164.574 14.2955C164.434 14.6742 164.364 15.1117 164.364 15.608C164.364 16.1117 164.434 16.5473 164.574 16.9148C164.718 17.2784 164.924 17.5606 165.193 17.7614C165.466 17.9583 165.801 18.0568 166.199 18.0568ZM176.318 20.1705C175.42 20.1705 174.648 19.9886 174 19.625C173.356 19.2576 172.86 18.7386 172.511 18.0682C172.163 17.3939 171.989 16.5966 171.989 15.6761C171.989 14.7784 172.163 13.9905 172.511 13.3125C172.86 12.6345 173.35 12.1061 173.983 11.7273C174.619 11.3485 175.366 11.1591 176.222 11.1591C176.797 11.1591 177.333 11.2519 177.83 11.4375C178.33 11.6193 178.765 11.8939 179.136 12.2614C179.511 12.6288 179.803 13.0909 180.011 13.6477C180.22 14.2008 180.324 14.8485 180.324 15.5909V16.2557H172.955V14.7557H178.045C178.045 14.4072 177.97 14.0985 177.818 13.8295C177.667 13.5606 177.456 13.3504 177.188 13.1989C176.922 13.0436 176.614 12.9659 176.261 12.9659C175.894 12.9659 175.568 13.0511 175.284 13.2216C175.004 13.3883 174.784 13.6136 174.625 13.8977C174.466 14.178 174.384 14.4905 174.381 14.8352V16.2614C174.381 16.6932 174.46 17.0663 174.619 17.3807C174.782 17.6951 175.011 17.9375 175.307 18.108C175.602 18.2784 175.953 18.3636 176.358 18.3636C176.627 18.3636 176.873 18.3258 177.097 18.25C177.32 18.1742 177.511 18.0606 177.67 17.9091C177.83 17.7576 177.951 17.572 178.034 17.3523L180.273 17.5C180.159 18.0379 179.926 18.5076 179.574 18.9091C179.225 19.3068 178.775 19.6174 178.222 19.8409C177.672 20.0606 177.038 20.1705 176.318 20.1705Z" fill="white"/>
<path d="M14.825 16L20.425 21.6L19 23L11 15L19 7L20.425 8.4L14.825 14H27V16H14.825Z" fill="#F5F5F5"/>
</svg>
