<svg width="363" height="363" viewBox="0 0 363 363" fill="none" xmlns="http://www.w3.org/2000/svg">
<circle cx="181.5" cy="181.5" r="181" fill="#D9D9D9" stroke="black"/>
<path d="M110.943 229H88.5002V156.273H111.938C118.993 156.273 125.03 157.729 130.048 160.641C135.067 163.529 138.914 167.684 141.59 173.105C144.265 178.503 145.602 184.966 145.602 192.494C145.602 200.07 144.253 206.592 141.554 212.061C138.855 217.506 134.925 221.696 129.764 224.632C124.603 227.544 118.33 229 110.943 229ZM97.307 221.188H110.375C116.388 221.188 121.372 220.027 125.325 217.707C129.279 215.387 132.227 212.085 134.168 207.8C136.109 203.515 137.08 198.413 137.08 192.494C137.08 186.623 136.121 181.569 134.203 177.331C132.286 173.07 129.421 169.803 125.61 167.53C121.798 165.233 117.051 164.085 111.369 164.085H97.307V221.188ZM159.94 229H150.707L177.412 156.273H186.503L213.207 229H203.974L182.241 167.778H181.673L159.94 229ZM163.349 200.591H200.565V208.403H163.349V200.591ZM227.518 229H218.285L244.99 156.273H254.081L280.785 229H271.552L249.819 167.778H249.251L227.518 229ZM230.927 200.591H268.143V208.403H230.927V200.591Z" fill="#292D32"/>
</svg>
