<svg width="94" height="30" viewBox="0 0 94 30" fill="none" xmlns="http://www.w3.org/2000/svg">
<rect width="94" height="30" rx="10" fill="#D61212"/>
<path d="M20.8523 19H17.7585V10.2727H20.8778C21.7557 10.2727 22.5114 10.4474 23.1449 10.7969C23.7784 11.1435 24.2656 11.642 24.6065 12.2926C24.9503 12.9432 25.1222 13.7216 25.1222 14.6278C25.1222 15.5369 24.9503 16.3182 24.6065 16.9716C24.2656 17.625 23.7756 18.1264 23.1364 18.4759C22.5 18.8253 21.7386 19 20.8523 19ZM19.6037 17.419H20.7756C21.321 17.419 21.7798 17.3224 22.152 17.1293C22.527 16.9332 22.8082 16.6307 22.9957 16.2216C23.1861 15.8097 23.2812 15.2784 23.2812 14.6278C23.2812 13.983 23.1861 13.456 22.9957 13.0469C22.8082 12.6378 22.5284 12.3366 22.1562 12.1435C21.7841 11.9503 21.3253 11.8537 20.7798 11.8537H19.6037V17.419ZM29.4379 19.1278C28.7646 19.1278 28.185 18.9915 27.6992 18.7188C27.2163 18.4432 26.8441 18.054 26.5827 17.5511C26.3214 17.0455 26.1907 16.4474 26.1907 15.7571C26.1907 15.0838 26.3214 14.4929 26.5827 13.9844C26.8441 13.4759 27.212 13.0795 27.6864 12.7955C28.1637 12.5114 28.7234 12.3693 29.3654 12.3693C29.7972 12.3693 30.1992 12.4389 30.5714 12.5781C30.9464 12.7145 31.2731 12.9205 31.5515 13.196C31.8327 13.4716 32.0515 13.8182 32.2077 14.2358C32.364 14.6506 32.4421 15.1364 32.4421 15.6932V16.1918H26.9151V15.0668H30.7333C30.7333 14.8054 30.6765 14.5739 30.5629 14.3722C30.4492 14.1705 30.2915 14.0128 30.0898 13.8991C29.891 13.7827 29.6594 13.7244 29.3952 13.7244C29.1197 13.7244 28.8754 13.7884 28.6623 13.9162C28.4521 14.0412 28.2873 14.2102 28.168 14.4233C28.0487 14.6335 27.9876 14.8679 27.9847 15.1264V16.196C27.9847 16.5199 28.0444 16.7997 28.1637 17.0355C28.2859 17.2713 28.4577 17.4531 28.6793 17.581C28.9009 17.7088 29.1637 17.7727 29.4677 17.7727C29.6694 17.7727 29.854 17.7443 30.0217 17.6875C30.1893 17.6307 30.3327 17.5455 30.4521 17.4318C30.5714 17.3182 30.6623 17.179 30.7248 17.0142L32.4038 17.125C32.3185 17.5284 32.1438 17.8807 31.8796 18.1818C31.6183 18.4801 31.2802 18.7131 30.8654 18.8807C30.4535 19.0455 29.9776 19.1278 29.4379 19.1278ZM35.4421 10.2727V19H33.6268V10.2727H35.4421ZM39.8793 19.1278C39.206 19.1278 38.6264 18.9915 38.1406 18.7188C37.6577 18.4432 37.2855 18.054 37.0241 17.5511C36.7628 17.0455 36.6321 16.4474 36.6321 15.7571C36.6321 15.0838 36.7628 14.4929 37.0241 13.9844C37.2855 13.4759 37.6534 13.0795 38.1278 12.7955C38.6051 12.5114 39.1648 12.3693 39.8068 12.3693C40.2386 12.3693 40.6406 12.4389 41.0128 12.5781C41.3878 12.7145 41.7145 12.9205 41.9929 13.196C42.2741 13.4716 42.4929 13.8182 42.6491 14.2358C42.8054 14.6506 42.8835 15.1364 42.8835 15.6932V16.1918H37.3565V15.0668H41.1747C41.1747 14.8054 41.1179 14.5739 41.0043 14.3722C40.8906 14.1705 40.733 14.0128 40.5312 13.8991C40.3324 13.7827 40.1009 13.7244 39.8366 13.7244C39.5611 13.7244 39.3168 13.7884 39.1037 13.9162C38.8935 14.0412 38.7287 14.2102 38.6094 14.4233C38.4901 14.6335 38.429 14.8679 38.4261 15.1264V16.196C38.4261 16.5199 38.4858 16.7997 38.6051 17.0355C38.7273 17.2713 38.8991 17.4531 39.1207 17.581C39.3423 17.7088 39.6051 17.7727 39.9091 17.7727C40.1108 17.7727 40.2955 17.7443 40.4631 17.6875C40.6307 17.6307 40.7741 17.5455 40.8935 17.4318C41.0128 17.3182 41.1037 17.179 41.1662 17.0142L42.8452 17.125C42.7599 17.5284 42.5852 17.8807 42.321 18.1818C42.0597 18.4801 41.7216 18.7131 41.3068 18.8807C40.8949 19.0455 40.419 19.1278 39.8793 19.1278ZM47.5497 12.4545V13.8182H43.608V12.4545H47.5497ZM44.5028 10.8864H46.3182V16.9886C46.3182 17.1562 46.3438 17.2869 46.3949 17.3807C46.446 17.4716 46.517 17.5355 46.608 17.5724C46.7017 17.6094 46.8097 17.6278 46.9318 17.6278C47.017 17.6278 47.1023 17.6207 47.1875 17.6065C47.2727 17.5895 47.3381 17.5767 47.3835 17.5682L47.669 18.919C47.5781 18.9474 47.4503 18.9801 47.2855 19.017C47.1207 19.0568 46.9205 19.081 46.6847 19.0895C46.2472 19.1065 45.8636 19.0483 45.5341 18.9148C45.2074 18.7812 44.9531 18.5739 44.7713 18.2926C44.5895 18.0114 44.5 17.6562 44.5028 17.2273V10.8864ZM51.6449 19.1278C50.9716 19.1278 50.392 18.9915 49.9062 18.7188C49.4233 18.4432 49.0511 18.054 48.7898 17.5511C48.5284 17.0455 48.3977 16.4474 48.3977 15.7571C48.3977 15.0838 48.5284 14.4929 48.7898 13.9844C49.0511 13.4759 49.419 13.0795 49.8935 12.7955C50.3707 12.5114 50.9304 12.3693 51.5724 12.3693C52.0043 12.3693 52.4063 12.4389 52.7784 12.5781C53.1534 12.7145 53.4801 12.9205 53.7585 13.196C54.0398 13.4716 54.2585 13.8182 54.4148 14.2358C54.571 14.6506 54.6491 15.1364 54.6491 15.6932V16.1918H49.1222V15.0668H52.9403C52.9403 14.8054 52.8835 14.5739 52.7699 14.3722C52.6563 14.1705 52.4986 14.0128 52.2969 13.8991C52.098 13.7827 51.8665 13.7244 51.6023 13.7244C51.3267 13.7244 51.0824 13.7884 50.8693 13.9162C50.6591 14.0412 50.4943 14.2102 50.375 14.4233C50.2557 14.6335 50.1946 14.8679 50.1918 15.1264V16.196C50.1918 16.5199 50.2514 16.7997 50.3707 17.0355C50.4929 17.2713 50.6648 17.4531 50.8864 17.581C51.108 17.7088 51.3707 17.7727 51.6747 17.7727C51.8764 17.7727 52.0611 17.7443 52.2287 17.6875C52.3963 17.6307 52.5398 17.5455 52.6591 17.4318C52.7784 17.3182 52.8693 17.179 52.9318 17.0142L54.6108 17.125C54.5256 17.5284 54.3509 17.8807 54.0866 18.1818C53.8253 18.4801 53.4872 18.7131 53.0724 18.8807C52.6605 19.0455 52.1847 19.1278 51.6449 19.1278Z" fill="white"/>
<path d="M67.5415 21.625C67.1061 21.625 66.7333 21.47 66.4233 21.1599C66.1132 20.8498 65.9582 20.4771 65.9582 20.0417V9.75H65.1665V8.16667H69.1248V7.375H73.8748V8.16667H77.8332V9.75H77.0415V20.0417C77.0415 20.4771 76.8865 20.8498 76.5764 21.1599C76.2663 21.47 75.8936 21.625 75.4582 21.625H67.5415ZM75.4582 9.75H67.5415V20.0417H75.4582V9.75ZM69.1248 18.4583H70.7082V11.3333H69.1248V18.4583ZM72.2915 18.4583H73.8748V11.3333H72.2915V18.4583Z" fill="#F5F5F5"/>
</svg>
