<svg width="115" height="30" viewBox="0 0 115 30" fill="none" xmlns="http://www.w3.org/2000/svg">
<rect width="115" height="30" rx="10" fill="#0B5CA6"/>
<path fill-rule="evenodd" clip-rule="evenodd" d="M90.5 22C94.6421 22 98 18.6421 98 14.5C98 10.3579 94.6421 7 90.5 7C86.3579 7 83 10.3579 83 14.5C83 18.6421 86.3579 22 90.5 22ZM93.8711 15.904L90.8787 18.8964C90.6695 19.1056 90.3303 19.1056 90.1211 18.8964L87.1287 15.904C86.7913 15.5665 87.0303 14.9895 87.5076 14.9895H89.4285V11.0179C89.4285 10.4261 89.9082 9.94643 90.4999 9.94643C91.0917 9.94643 91.5714 10.4261 91.5714 11.0179V14.9895H93.4923C93.9696 14.9895 94.2086 15.5665 93.8711 15.904Z" fill="#F5F5F5"/>
<path d="M20.8523 19H17.7585V10.2727H20.8778C21.7557 10.2727 22.5114 10.4474 23.1449 10.7969C23.7784 11.1435 24.2656 11.642 24.6065 12.2926C24.9503 12.9432 25.1222 13.7216 25.1222 14.6278C25.1222 15.5369 24.9503 16.3182 24.6065 16.9716C24.2656 17.625 23.7756 18.1264 23.1364 18.4759C22.5 18.8253 21.7386 19 20.8523 19ZM19.6037 17.419H20.7756C21.321 17.419 21.7798 17.3224 22.152 17.1293C22.527 16.9332 22.8082 16.6307 22.9957 16.2216C23.1861 15.8097 23.2812 15.2784 23.2812 14.6278C23.2812 13.983 23.1861 13.456 22.9957 13.0469C22.8082 12.6378 22.5284 12.3366 22.1562 12.1435C21.7841 11.9503 21.3253 11.8537 20.7798 11.8537H19.6037V17.419ZM29.4123 19.1278C28.7504 19.1278 28.1779 18.9872 27.695 18.706C27.2148 18.4219 26.8441 18.027 26.5827 17.5213C26.3214 17.0128 26.1907 16.4233 26.1907 15.7528C26.1907 15.0767 26.3214 14.4858 26.5827 13.9801C26.8441 13.4716 27.2148 13.0767 27.695 12.7955C28.1779 12.5114 28.7504 12.3693 29.4123 12.3693C30.0742 12.3693 30.6452 12.5114 31.1254 12.7955C31.6083 13.0767 31.9805 13.4716 32.2418 13.9801C32.5032 14.4858 32.6339 15.0767 32.6339 15.7528C32.6339 16.4233 32.5032 17.0128 32.2418 17.5213C31.9805 18.027 31.6083 18.4219 31.1254 18.706C30.6452 18.9872 30.0742 19.1278 29.4123 19.1278ZM29.4208 17.7216C29.7219 17.7216 29.9734 17.6364 30.1751 17.4659C30.3768 17.2926 30.5288 17.0568 30.631 16.7585C30.7362 16.4602 30.7887 16.1207 30.7887 15.7401C30.7887 15.3594 30.7362 15.0199 30.631 14.7216C30.5288 14.4233 30.3768 14.1875 30.1751 14.0142C29.9734 13.8409 29.7219 13.7543 29.4208 13.7543C29.1168 13.7543 28.8612 13.8409 28.6538 14.0142C28.4492 14.1875 28.2944 14.4233 28.1893 14.7216C28.087 15.0199 28.0359 15.3594 28.0359 15.7401C28.0359 16.1207 28.087 16.4602 28.1893 16.7585C28.2944 17.0568 28.4492 17.2926 28.6538 17.4659C28.8612 17.6364 29.1168 17.7216 29.4208 17.7216ZM34.9414 19L33.1602 12.4545H34.9968L36.011 16.8523H36.0707L37.1275 12.4545H38.93L40.0039 16.8267H40.0593L41.0565 12.4545H42.8888L41.1119 19H39.19L38.065 14.8835H37.984L36.859 19H34.9414ZM45.6726 15.2159V19H43.8572V12.4545H45.5874V13.6094H45.6641C45.8089 13.2287 46.0518 12.9276 46.3928 12.706C46.7337 12.4815 47.147 12.3693 47.6328 12.3693C48.0874 12.3693 48.4837 12.4688 48.8217 12.6676C49.1598 12.8665 49.4226 13.1506 49.6101 13.5199C49.7976 13.8864 49.8913 14.3239 49.8913 14.8324V19H48.076V15.1562C48.0788 14.7557 47.9766 14.4432 47.7692 14.2188C47.5618 13.9915 47.2763 13.8778 46.9126 13.8778C46.6683 13.8778 46.4524 13.9304 46.2649 14.0355C46.0803 14.1406 45.9354 14.294 45.8303 14.4957C45.728 14.6946 45.6754 14.9347 45.6726 15.2159ZM53.1374 10.2727V19H51.3221V10.2727H53.1374ZM57.549 19.1278C56.8871 19.1278 56.3146 18.9872 55.8317 18.706C55.3516 18.4219 54.9808 18.027 54.7195 17.5213C54.4581 17.0128 54.3274 16.4233 54.3274 15.7528C54.3274 15.0767 54.4581 14.4858 54.7195 13.9801C54.9808 13.4716 55.3516 13.0767 55.8317 12.7955C56.3146 12.5114 56.8871 12.3693 57.549 12.3693C58.2109 12.3693 58.782 12.5114 59.2621 12.7955C59.745 13.0767 60.1172 13.4716 60.3786 13.9801C60.6399 14.4858 60.7706 15.0767 60.7706 15.7528C60.7706 16.4233 60.6399 17.0128 60.3786 17.5213C60.1172 18.027 59.745 18.4219 59.2621 18.706C58.782 18.9872 58.2109 19.1278 57.549 19.1278ZM57.5575 17.7216C57.8587 17.7216 58.1101 17.6364 58.3118 17.4659C58.5135 17.2926 58.6655 17.0568 58.7678 16.7585C58.8729 16.4602 58.9254 16.1207 58.9254 15.7401C58.9254 15.3594 58.8729 15.0199 58.7678 14.7216C58.6655 14.4233 58.5135 14.1875 58.3118 14.0142C58.1101 13.8409 57.8587 13.7543 57.5575 13.7543C57.2536 13.7543 56.9979 13.8409 56.7905 14.0142C56.5859 14.1875 56.4311 14.4233 56.326 14.7216C56.2237 15.0199 56.1726 15.3594 56.1726 15.7401C56.1726 16.1207 56.2237 16.4602 56.326 16.7585C56.4311 17.0568 56.5859 17.2926 56.7905 17.4659C56.9979 17.6364 57.2536 17.7216 57.5575 17.7216ZM63.8175 19.1236C63.3999 19.1236 63.0277 19.0511 62.701 18.9062C62.3743 18.7585 62.1158 18.5412 61.9254 18.2543C61.7379 17.9645 61.6442 17.6037 61.6442 17.1719C61.6442 16.8082 61.7109 16.5028 61.8445 16.2557C61.978 16.0085 62.1598 15.8097 62.3899 15.6591C62.62 15.5085 62.8814 15.3949 63.174 15.3182C63.4695 15.2415 63.7791 15.1875 64.103 15.1562C64.4837 15.1165 64.7905 15.0795 65.0234 15.0455C65.2564 15.0085 65.4254 14.9545 65.5305 14.8835C65.6357 14.8125 65.6882 14.7074 65.6882 14.5682V14.5426C65.6882 14.2727 65.603 14.0639 65.4325 13.9162C65.2649 13.7685 65.0263 13.6946 64.7166 13.6946C64.3899 13.6946 64.13 13.767 63.9368 13.9119C63.7436 14.054 63.6158 14.233 63.5533 14.4489L61.8743 14.3125C61.9595 13.9148 62.1271 13.571 62.3771 13.2812C62.6271 12.9886 62.9496 12.7642 63.3445 12.608C63.7422 12.4489 64.2024 12.3693 64.7251 12.3693C65.0888 12.3693 65.4368 12.4119 65.7692 12.4972C66.1044 12.5824 66.4013 12.7145 66.6598 12.8935C66.9212 13.0724 67.1271 13.3026 67.2777 13.5838C67.4283 13.8622 67.5036 14.196 67.5036 14.5852V19H65.782V18.0923H65.7308C65.6257 18.2969 65.4851 18.4773 65.3089 18.6335C65.1328 18.7869 64.9212 18.9077 64.674 18.9957C64.4268 19.081 64.1413 19.1236 63.8175 19.1236ZM64.3374 17.8707C64.6044 17.8707 64.8402 17.8182 65.0447 17.7131C65.2493 17.6051 65.4098 17.4602 65.5263 17.2784C65.6428 17.0966 65.701 16.8906 65.701 16.6605V15.9659C65.6442 16.0028 65.5661 16.0369 65.4666 16.0682C65.37 16.0966 65.2607 16.1236 65.1385 16.1491C65.0163 16.1719 64.8942 16.1932 64.772 16.2131C64.6499 16.2301 64.5391 16.2457 64.4396 16.2599C64.2266 16.2912 64.0405 16.3409 63.8814 16.4091C63.7223 16.4773 63.5987 16.5696 63.5107 16.6861C63.4226 16.7997 63.3786 16.9418 63.3786 17.1122C63.3786 17.3594 63.468 17.5483 63.647 17.679C63.8288 17.8068 64.0589 17.8707 64.3374 17.8707ZM71.3239 19.1065C70.8267 19.1065 70.3764 18.9787 69.973 18.723C69.5724 18.4645 69.2543 18.0852 69.0185 17.5852C68.7855 17.0824 68.669 16.4659 68.669 15.7358C68.669 14.9858 68.7898 14.3622 69.0312 13.8651C69.2727 13.3651 69.5938 12.9915 69.9943 12.7443C70.3977 12.4943 70.8395 12.3693 71.3196 12.3693C71.6861 12.3693 71.9915 12.4318 72.2358 12.5568C72.483 12.679 72.6818 12.8324 72.8324 13.017C72.9858 13.1989 73.1023 13.3778 73.1818 13.554H73.2372V10.2727H75.0483V19H73.2585V17.9517H73.1818C73.0966 18.1335 72.9759 18.3139 72.8196 18.4929C72.6662 18.669 72.4659 18.8153 72.2188 18.9318C71.9744 19.0483 71.6761 19.1065 71.3239 19.1065ZM71.8991 17.6619C72.1918 17.6619 72.4389 17.5824 72.6406 17.4233C72.8452 17.2614 73.0014 17.0355 73.1094 16.7457C73.2202 16.456 73.2756 16.1165 73.2756 15.7273C73.2756 15.3381 73.2216 15 73.1136 14.7131C73.0057 14.4261 72.8494 14.2045 72.6449 14.0483C72.4403 13.892 72.1918 13.8139 71.8991 13.8139C71.6009 13.8139 71.3494 13.8949 71.1449 14.0568C70.9403 14.2187 70.7855 14.4432 70.6804 14.7301C70.5753 15.017 70.5227 15.3494 70.5227 15.7273C70.5227 16.108 70.5753 16.4446 70.6804 16.7372C70.7884 17.027 70.9432 17.2543 71.1449 17.419C71.3494 17.581 71.6009 17.6619 71.8991 17.6619Z" fill="white"/>
</svg>
