<svg width="115" height="30" viewBox="0 0 115 30" fill="none" xmlns="http://www.w3.org/2000/svg">
<rect width="115" height="30" rx="10" fill="#0B5CA6"/>
<path d="M44.2628 19H42.2855L45.2983 10.2727H47.6761L50.6847 19H48.7074L46.5213 12.267H46.4531L44.2628 19ZM44.1392 15.5696H48.8097V17.0099H44.1392V15.5696ZM53.8082 19.1065C53.3111 19.1065 52.8608 18.9787 52.4574 18.723C52.0568 18.4645 51.7386 18.0852 51.5028 17.5852C51.2699 17.0824 51.1534 16.4659 51.1534 15.7358C51.1534 14.9858 51.2741 14.3622 51.5156 13.8651C51.7571 13.3651 52.0781 12.9915 52.4787 12.7443C52.8821 12.4943 53.3239 12.3693 53.804 12.3693C54.1705 12.3693 54.4759 12.4318 54.7202 12.5568C54.9673 12.679 55.1662 12.8324 55.3168 13.017C55.4702 13.1989 55.5866 13.3778 55.6662 13.554H55.7216V10.2727H57.5327V19H55.7429V17.9517H55.6662C55.581 18.1335 55.4602 18.3139 55.304 18.4929C55.1506 18.669 54.9503 18.8153 54.7031 18.9318C54.4588 19.0483 54.1605 19.1065 53.8082 19.1065ZM54.3835 17.6619C54.6761 17.6619 54.9233 17.5824 55.125 17.4233C55.3295 17.2614 55.4858 17.0355 55.5938 16.7457C55.7045 16.456 55.7599 16.1165 55.7599 15.7273C55.7599 15.3381 55.706 15 55.598 14.7131C55.4901 14.4261 55.3338 14.2045 55.1293 14.0483C54.9247 13.892 54.6761 13.8139 54.3835 13.8139C54.0852 13.8139 53.8338 13.8949 53.6293 14.0568C53.4247 14.2187 53.2699 14.4432 53.1648 14.7301C53.0597 15.017 53.0071 15.3494 53.0071 15.7273C53.0071 16.108 53.0597 16.4446 53.1648 16.7372C53.2727 17.027 53.4276 17.2543 53.6293 17.419C53.8338 17.581 54.0852 17.6619 54.3835 17.6619ZM61.4371 19.1065C60.94 19.1065 60.4897 18.9787 60.0863 18.723C59.6857 18.4645 59.3675 18.0852 59.1317 17.5852C58.8988 17.0824 58.7823 16.4659 58.7823 15.7358C58.7823 14.9858 58.9031 14.3622 59.1445 13.8651C59.386 13.3651 59.707 12.9915 60.1076 12.7443C60.511 12.4943 60.9528 12.3693 61.4329 12.3693C61.7994 12.3693 62.1048 12.4318 62.3491 12.5568C62.5962 12.679 62.7951 12.8324 62.9457 13.017C63.0991 13.1989 63.2156 13.3778 63.2951 13.554H63.3505V10.2727H65.1616V19H63.3718V17.9517H63.2951C63.2099 18.1335 63.0891 18.3139 62.9329 18.4929C62.7795 18.669 62.5792 18.8153 62.332 18.9318C62.0877 19.0483 61.7894 19.1065 61.4371 19.1065ZM62.0124 17.6619C62.305 17.6619 62.5522 17.5824 62.7539 17.4233C62.9585 17.2614 63.1147 17.0355 63.2227 16.7457C63.3335 16.456 63.3888 16.1165 63.3888 15.7273C63.3888 15.3381 63.3349 15 63.2269 14.7131C63.119 14.4261 62.9627 14.2045 62.7582 14.0483C62.5536 13.892 62.305 13.8139 62.0124 13.8139C61.7141 13.8139 61.4627 13.8949 61.2582 14.0568C61.0536 14.2187 60.8988 14.4432 60.7937 14.7301C60.6886 15.017 60.636 15.3494 60.636 15.7273C60.636 16.108 60.6886 16.4446 60.7937 16.7372C60.9016 17.027 61.0565 17.2543 61.2582 17.419C61.4627 17.581 61.7141 17.6619 62.0124 17.6619ZM69.1332 11.794V10.2727H76.3008V11.794H73.6289V19H71.805V11.794H69.1332ZM79.4808 19.1278C78.8075 19.1278 78.228 18.9915 77.7422 18.7188C77.2592 18.4432 76.8871 18.054 76.6257 17.5511C76.3643 17.0455 76.2337 16.4474 76.2337 15.7571C76.2337 15.0838 76.3643 14.4929 76.6257 13.9844C76.8871 13.4759 77.255 13.0795 77.7294 12.7955C78.2067 12.5114 78.7663 12.3693 79.4084 12.3693C79.8402 12.3693 80.2422 12.4389 80.6143 12.5781C80.9893 12.7145 81.3161 12.9205 81.5945 13.196C81.8757 13.4716 82.0945 13.8182 82.2507 14.2358C82.407 14.6506 82.4851 15.1364 82.4851 15.6932V16.1918H76.9581V15.0668H80.7763C80.7763 14.8054 80.7195 14.5739 80.6058 14.3722C80.4922 14.1705 80.3345 14.0128 80.1328 13.8991C79.9339 13.7827 79.7024 13.7244 79.4382 13.7244C79.1626 13.7244 78.9183 13.7884 78.7053 13.9162C78.495 14.0412 78.3303 14.2102 78.2109 14.4233C78.0916 14.6335 78.0305 14.8679 78.0277 15.1264V16.196C78.0277 16.5199 78.0874 16.7997 78.2067 17.0355C78.3288 17.2713 78.5007 17.4531 78.7223 17.581C78.9439 17.7088 79.2067 17.7727 79.5107 17.7727C79.7124 17.7727 79.897 17.7443 80.0646 17.6875C80.2322 17.6307 80.3757 17.5455 80.495 17.4318C80.6143 17.3182 80.7053 17.179 80.7678 17.0142L82.4467 17.125C82.3615 17.5284 82.1868 17.8807 81.9226 18.1818C81.6612 18.4801 81.3232 18.7131 80.9084 18.8807C80.4964 19.0455 80.0206 19.1278 79.4808 19.1278ZM85.0696 12.4545L86.2713 14.7429L87.5028 12.4545H89.3651L87.4688 15.7273L89.4162 19H87.5625L86.2713 16.7372L85.0014 19H83.1264L85.0696 15.7273L83.1946 12.4545H85.0696ZM93.9247 12.4545V13.8182H89.983V12.4545H93.9247ZM90.8778 10.8864H92.6932V16.9886C92.6932 17.1562 92.7188 17.2869 92.7699 17.3807C92.821 17.4716 92.892 17.5355 92.983 17.5724C93.0767 17.6094 93.1847 17.6278 93.3068 17.6278C93.392 17.6278 93.4773 17.6207 93.5625 17.6065C93.6477 17.5895 93.7131 17.5767 93.7585 17.5682L94.044 18.919C93.9531 18.9474 93.8253 18.9801 93.6605 19.017C93.4957 19.0568 93.2955 19.081 93.0597 19.0895C92.6222 19.1065 92.2386 19.0483 91.9091 18.9148C91.5824 18.7812 91.3281 18.5739 91.1463 18.2926C90.9645 18.0114 90.875 17.6562 90.8778 17.2273V10.8864Z" fill="white"/>
<path d="M21.6663 20.1667V10.9583H18.333V8.83334H26.9997V10.9583H23.6663V20.1667H21.6663ZM27.6663 20.1667V14.5H25.6663V12.375H31.6663V14.5H29.6663V20.1667H27.6663Z" fill="white"/>
</svg>
