<svg width="363" height="363" viewBox="0 0 363 363" fill="none" xmlns="http://www.w3.org/2000/svg">
<circle cx="181.5" cy="181.5" r="181" fill="#D9D9D9" stroke="black"/>
<path d="M147.911 192.636C147.911 200.307 146.526 206.936 143.756 212.523C140.986 218.11 137.186 222.419 132.357 225.449C127.527 228.479 122.011 229.994 115.808 229.994C109.606 229.994 104.09 228.479 99.2601 225.449C94.4306 222.419 90.6309 218.11 87.861 212.523C85.0911 206.936 83.7061 200.307 83.7061 192.636C83.7061 184.966 85.0911 178.337 87.861 172.75C90.6309 167.163 94.4306 162.854 99.2601 159.824C104.09 156.794 109.606 155.278 115.808 155.278C122.011 155.278 127.527 156.794 132.357 159.824C137.186 162.854 140.986 167.163 143.756 172.75C146.526 178.337 147.911 184.966 147.911 192.636ZM139.388 192.636C139.388 186.339 138.334 181.024 136.227 176.692C134.144 172.359 131.315 169.08 127.74 166.855C124.189 164.63 120.212 163.517 115.808 163.517C111.405 163.517 107.416 164.63 103.841 166.855C100.29 169.08 97.4609 172.359 95.3539 176.692C93.2705 181.024 92.2289 186.339 92.2289 192.636C92.2289 198.934 93.2705 204.249 95.3539 208.581C97.4609 212.913 100.29 216.192 103.841 218.418C107.416 220.643 111.405 221.756 115.808 221.756C120.212 221.756 124.189 220.643 127.74 218.418C131.315 216.192 134.144 212.913 136.227 208.581C138.334 204.249 139.388 198.934 139.388 192.636ZM202.492 174.455C202.066 170.856 200.337 168.062 197.307 166.074C194.277 164.085 190.56 163.091 186.156 163.091C182.937 163.091 180.119 163.612 177.705 164.653C175.314 165.695 173.443 167.127 172.094 168.95C170.768 170.773 170.105 172.845 170.105 175.165C170.105 177.106 170.567 178.775 171.49 180.172C172.437 181.545 173.645 182.693 175.112 183.616C176.58 184.516 178.119 185.262 179.729 185.854C181.339 186.422 182.818 186.884 184.168 187.239L191.554 189.227C193.448 189.724 195.555 190.411 197.875 191.287C200.219 192.163 202.456 193.358 204.587 194.874C206.741 196.365 208.517 198.283 209.914 200.626C211.31 202.97 212.009 205.847 212.009 209.256C212.009 213.186 210.979 216.737 208.919 219.909C206.883 223.081 203.9 225.603 199.97 227.473C196.064 229.343 191.317 230.278 185.73 230.278C180.522 230.278 176.012 229.438 172.2 227.757C168.413 226.076 165.43 223.732 163.252 220.726C161.097 217.719 159.878 214.227 159.594 210.25H168.685C168.922 212.996 169.845 215.269 171.455 217.068C173.088 218.844 175.148 220.17 177.634 221.045C180.143 221.898 182.842 222.324 185.73 222.324C189.092 222.324 192.111 221.779 194.786 220.69C197.461 219.578 199.58 218.039 201.142 216.074C202.705 214.085 203.486 211.765 203.486 209.114C203.486 206.699 202.811 204.734 201.462 203.219C200.112 201.704 198.337 200.473 196.135 199.526C193.933 198.579 191.554 197.75 188.997 197.04L180.048 194.483C174.367 192.849 169.869 190.518 166.554 187.487C163.24 184.457 161.583 180.491 161.583 175.591C161.583 171.519 162.683 167.968 164.885 164.938C167.11 161.884 170.093 159.516 173.834 157.835C177.598 156.131 181.8 155.278 186.441 155.278C191.128 155.278 195.295 156.119 198.941 157.8C202.586 159.457 205.475 161.73 207.605 164.618C209.76 167.506 210.896 170.785 211.014 174.455H202.492ZM229.471 229H220.238L246.943 156.273H256.034L282.738 229H273.506L251.773 167.778H251.204L229.471 229ZM232.881 200.591H270.096V208.403H232.881V200.591Z" fill="#292D32"/>
</svg>
