<svg width="115" height="30" viewBox="0 0 115 30" fill="none" xmlns="http://www.w3.org/2000/svg">
<rect width="115" height="30" rx="10" fill="#D82038"/>
<path d="M47.4929 12.7827C47.4588 12.4389 47.3125 12.1719 47.054 11.9815C46.7955 11.7912 46.4446 11.696 46.0014 11.696C45.7003 11.696 45.446 11.7386 45.2386 11.8239C45.0313 11.9062 44.8722 12.0213 44.7614 12.169C44.6534 12.3168 44.5994 12.4844 44.5994 12.6719C44.5938 12.8281 44.6264 12.9645 44.6974 13.081C44.7713 13.1974 44.8722 13.2983 45 13.3835C45.1278 13.4659 45.2756 13.5384 45.4432 13.6009C45.6108 13.6605 45.7898 13.7116 45.9801 13.7543L46.7642 13.9418C47.1449 14.027 47.4943 14.1406 47.8125 14.2827C48.1307 14.4247 48.4063 14.5994 48.6392 14.8068C48.8722 15.0142 49.0526 15.2585 49.1804 15.5398C49.3111 15.821 49.3778 16.1435 49.3807 16.5071C49.3778 17.0412 49.2415 17.5043 48.9716 17.8963C48.7045 18.2855 48.3182 18.5881 47.8125 18.804C47.3097 19.017 46.7031 19.1236 45.9929 19.1236C45.2884 19.1236 44.6747 19.0156 44.152 18.7997C43.6321 18.5838 43.2259 18.2642 42.9332 17.8409C42.6435 17.4148 42.4915 16.8878 42.4773 16.2599H44.2628C44.2827 16.5526 44.3665 16.7969 44.5142 16.9929C44.6648 17.1861 44.8651 17.3324 45.1151 17.4318C45.3679 17.5284 45.6534 17.5767 45.9716 17.5767C46.2841 17.5767 46.5554 17.5312 46.7855 17.4403C47.0185 17.3494 47.1989 17.223 47.3267 17.0611C47.4545 16.8991 47.5185 16.7131 47.5185 16.5028C47.5185 16.3068 47.4602 16.142 47.3438 16.0085C47.2301 15.875 47.0625 15.7614 46.8409 15.6676C46.6222 15.5739 46.3537 15.4886 46.0355 15.4119L45.0852 15.1733C44.3494 14.9943 43.7685 14.7145 43.3423 14.3338C42.9162 13.9531 42.7045 13.4403 42.7074 12.7955C42.7045 12.267 42.8452 11.8054 43.1293 11.4105C43.4162 11.0156 43.8097 10.7074 44.3097 10.4858C44.8097 10.2642 45.3778 10.1534 46.0142 10.1534C46.6619 10.1534 47.2273 10.2642 47.7102 10.4858C48.196 10.7074 48.5739 11.0156 48.8438 11.4105C49.1136 11.8054 49.2528 12.2628 49.2614 12.7827H47.4929ZM50.5877 19V12.4545H52.4031V19H50.5877ZM51.4996 11.6108C51.2298 11.6108 50.9982 11.5213 50.805 11.3423C50.6147 11.1605 50.5195 10.9432 50.5195 10.6903C50.5195 10.4403 50.6147 10.2259 50.805 10.0469C50.9982 9.86506 51.2298 9.77415 51.4996 9.77415C51.7695 9.77415 51.9996 9.86506 52.19 10.0469C52.3832 10.2259 52.4798 10.4403 52.4798 10.6903C52.4798 10.9432 52.3832 11.1605 52.19 11.3423C51.9996 11.5213 51.7695 11.6108 51.4996 11.6108ZM56.8061 21.5909C56.218 21.5909 55.7138 21.5099 55.2933 21.348C54.8757 21.1889 54.5433 20.9716 54.2962 20.696C54.049 20.4205 53.8885 20.1108 53.8146 19.767L55.4936 19.5412C55.5447 19.6719 55.6257 19.794 55.7365 19.9077C55.8473 20.0213 55.9936 20.1122 56.1754 20.1804C56.3601 20.2514 56.5845 20.2869 56.8487 20.2869C57.2436 20.2869 57.5689 20.1903 57.8246 19.9972C58.0831 19.8068 58.2124 19.4872 58.2124 19.0384V17.8409H58.1357C58.0561 18.0227 57.9368 18.1946 57.7777 18.3565C57.6186 18.5185 57.4141 18.6506 57.1641 18.7528C56.9141 18.8551 56.6158 18.9062 56.2692 18.9062C55.7777 18.9062 55.3303 18.7926 54.9268 18.5653C54.5263 18.3352 54.2067 17.9844 53.968 17.5128C53.7322 17.0384 53.6143 16.4389 53.6143 15.7145C53.6143 14.973 53.7351 14.3537 53.9766 13.8565C54.218 13.3594 54.5391 12.9872 54.9396 12.7401C55.343 12.4929 55.7848 12.3693 56.2649 12.3693C56.6314 12.3693 56.9382 12.4318 57.1854 12.5568C57.4325 12.679 57.6314 12.8324 57.782 13.017C57.9354 13.1989 58.0533 13.3778 58.1357 13.554H58.2038V12.4545H60.0064V19.0639C60.0064 19.6207 59.87 20.0866 59.5973 20.4616C59.3246 20.8366 58.9467 21.1179 58.4638 21.3054C57.9837 21.4957 57.4311 21.5909 56.8061 21.5909ZM56.8445 17.5426C57.1371 17.5426 57.3842 17.4702 57.5859 17.3253C57.7905 17.1776 57.9467 16.9673 58.0547 16.6946C58.1655 16.419 58.2209 16.0895 58.2209 15.706C58.2209 15.3224 58.1669 14.9901 58.0589 14.7088C57.951 14.4247 57.7947 14.2045 57.5902 14.0483C57.3857 13.892 57.1371 13.8139 56.8445 13.8139C56.5462 13.8139 56.2947 13.8949 56.0902 14.0568C55.8857 14.2159 55.7308 14.4375 55.6257 14.7216C55.5206 15.0057 55.468 15.3338 55.468 15.706C55.468 16.0838 55.5206 16.4105 55.6257 16.6861C55.7337 16.9588 55.8885 17.1705 56.0902 17.321C56.2947 17.4687 56.5462 17.5426 56.8445 17.5426ZM63.2663 15.2159V19H61.451V12.4545H63.1811V13.6094H63.2578C63.4027 13.2287 63.6456 12.9276 63.9865 12.706C64.3274 12.4815 64.7408 12.3693 65.2266 12.3693C65.6811 12.3693 66.0774 12.4688 66.4155 12.6676C66.7536 12.8665 67.0163 13.1506 67.2038 13.5199C67.3913 13.8864 67.4851 14.3239 67.4851 14.8324V19H65.6697V15.1562C65.6726 14.7557 65.5703 14.4432 65.3629 14.2188C65.1555 13.9915 64.87 13.8778 64.5064 13.8778C64.2621 13.8778 64.0462 13.9304 63.8587 14.0355C63.674 14.1406 63.5291 14.294 63.424 14.4957C63.3217 14.6946 63.2692 14.9347 63.2663 15.2159ZM71.7273 19V10.2727H75.1705C75.8324 10.2727 76.3963 10.3991 76.8622 10.652C77.3281 10.902 77.6832 11.25 77.9276 11.696C78.1747 12.1392 78.2983 12.6506 78.2983 13.2301C78.2983 13.8097 78.1733 14.321 77.9233 14.7642C77.6733 15.2074 77.3111 15.5526 76.8366 15.7997C76.3651 16.0469 75.794 16.1705 75.1236 16.1705H72.929V14.6918H74.8253C75.1804 14.6918 75.473 14.6307 75.7031 14.5085C75.9361 14.3835 76.1094 14.2116 76.223 13.9929C76.3395 13.7713 76.3977 13.517 76.3977 13.2301C76.3977 12.9403 76.3395 12.6875 76.223 12.4716C76.1094 12.2528 75.9361 12.0838 75.7031 11.9645C75.4702 11.8423 75.1747 11.7812 74.8168 11.7812H73.5724V19H71.7273ZM82.5906 19H79.4968V10.2727H82.6161C83.494 10.2727 84.2496 10.4474 84.8832 10.7969C85.5167 11.1435 86.0039 11.642 86.3448 12.2926C86.6886 12.9432 86.8604 13.7216 86.8604 14.6278C86.8604 15.5369 86.6886 16.3182 86.3448 16.9716C86.0039 17.625 85.5138 18.1264 84.8746 18.4759C84.2383 18.8253 83.4769 19 82.5906 19ZM81.342 17.419H82.5138C83.0593 17.419 83.5181 17.3224 83.8903 17.1293C84.2653 16.9332 84.5465 16.6307 84.734 16.2216C84.9244 15.8097 85.0195 15.2784 85.0195 14.6278C85.0195 13.983 84.9244 13.456 84.734 13.0469C84.5465 12.6378 84.2667 12.3366 83.8945 12.1435C83.5224 11.9503 83.0636 11.8537 82.5181 11.8537H81.342V17.419ZM88.2273 19V10.2727H94.0057V11.794H90.0724V13.8736H93.6222V15.3949H90.0724V19H88.2273Z" fill="white"/>
<path d="M25.5 20.875H31.5M27.375 10L30 12.25M20.625 16.75L28.0196 9.09714C28.8158 8.30095 30.1067 8.30095 30.9029 9.09714C31.699 9.89333 31.699 11.1842 30.9029 11.9804L23.25 19.375L19.5 20.5L20.625 16.75Z" stroke="#D9D9D9" stroke-width="2" stroke-linecap="round" stroke-linejoin="round"/>
</svg>
