<svg width="363" height="363" viewBox="0 0 363 363" fill="none" xmlns="http://www.w3.org/2000/svg">
<circle cx="181.5" cy="181.5" r="181" fill="#D9D9D9" stroke="black"/>
<path d="M80.3599 159.455L98.9281 212.105H99.661L118.229 159.455H126.17L103.204 222H95.3855L72.4196 159.455H80.3599ZM135.912 222V159.455H157.045C161.952 159.455 165.963 160.34 169.078 162.112C172.213 163.862 174.534 166.234 176.041 169.227C177.548 172.22 178.301 175.559 178.301 179.244C178.301 182.929 177.548 186.279 176.041 189.292C174.555 192.305 172.254 194.708 169.139 196.499C166.024 198.271 162.033 199.156 157.167 199.156H142.02V192.438H156.923C160.282 192.438 162.98 191.857 165.016 190.697C167.052 189.536 168.528 187.969 169.444 185.994C170.381 183.998 170.849 181.749 170.849 179.244C170.849 176.74 170.381 174.5 169.444 172.526C168.528 170.551 167.042 169.003 164.986 167.884C162.929 166.743 160.201 166.173 156.801 166.173H143.486V222H135.912ZM186.684 222H178.744L201.71 159.455H209.528L232.494 222H224.553L205.863 169.349H205.374L186.684 222ZM189.616 197.568H221.622V204.287H189.616V197.568ZM244.801 222H236.861L259.827 159.455H267.645L290.611 222H282.671L263.98 169.349H263.492L244.801 222ZM247.733 197.568H279.739V204.287H247.733V197.568Z" fill="#292D32"/>
</svg>
