<svg width="492" height="306" viewBox="0 0 492 306" fill="none" xmlns="http://www.w3.org/2000/svg">
<path d="M125.958 161.376C126.085 162.015 126.216 162.591 126.343 163.17H126.406C126.216 162.594 126.085 161.955 125.958 161.376Z" fill="#F5F5F5"/>
<path d="M167.468 207.386C157.616 204.495 149.074 199.281 141.829 191.709C134.15 183.708 129.03 174.175 126.407 163.17C126.216 162.591 126.089 161.952 125.958 161.376C125.895 161.313 125.895 161.249 125.895 161.185C125.513 159.138 125.192 157.026 124.871 154.848C124.617 152.546 124.359 150.177 124.232 147.747V147.553C124.168 146.339 124.168 145.124 124.168 143.906V66.1411C140.253 65.9738 135.013 66.0206 159.36 66.1411C159.172 65.174 157.041 64.7089 124.372 64.7089C113.4 64.7089 102.652 56.8287 100.531 49.2898L153.059 50.9261C153.069 50.3338 146.367 48.9887 100.792 47.8108C90.8204 47.5532 82.8432 35.6074 82.8432 31.5384L137.406 33.8239C137.57 32.7631 130.67 32.0504 83.6429 30.1699C72.6474 29.7282 60.792 8.11197 61.0028 6.96423H120.196C122.053 6.96423 123.844 7.02781 125.637 7.21854H125.701C149.121 9.07566 169.214 22.641 180.029 42.0956C184.382 49.775 187.26 58.3479 188.284 67.4996H188.542V116.581C188.542 123.558 189.117 128.229 190.205 130.404C191.356 132.643 193.598 133.797 196.987 133.797C201.043 133.797 207.799 131.331 212.199 126.784C210.037 167.152 194.073 196.106 167.464 207.386H167.468Z" fill="#F5F5F5"/>
<path d="M259.099 201.38C256.931 199.967 254.849 198.385 252.855 196.635C252.855 195.741 252.855 195.293 252.791 195.099L254.97 193.245L251.962 190.812V190.11C251.962 190.11 266.678 190.749 268.853 184.351C268.853 184.351 270.968 179.295 268.853 175.326C266.678 171.425 262.264 171.167 262.264 171.167L257.081 171.103V170.27C257.081 170.27 258.296 169.952 258.423 168.734C258.554 167.456 257.018 167.71 257.018 167.71C256.887 167.71 256.121 167.647 256.057 165.726C255.994 163.745 256.057 162.209 256.057 162.209C256.057 162.209 254.97 161.888 255.033 160.991C255.033 160.162 256.057 160.543 255.545 158.944C255.033 157.344 254.009 156.959 254.009 156.959V154.466C254.009 154.466 259.959 152.93 259.641 149.986C259.256 147.105 255.609 145.954 255.609 145.954L255.672 143.652C255.672 143.652 252.986 142.818 251.386 141.794C249.85 140.707 250.232 138.659 250.232 138.659C250.232 138.659 248.696 133.797 241.85 133.412C241.913 131.619 244.346 130.852 244.667 128.677C244.6 128.677 244.731 124.455 239.099 121.828C233.467 124.455 233.595 128.677 233.531 128.677C233.852 130.852 236.281 131.619 236.345 133.412C229.499 133.797 227.963 138.659 227.963 138.659C227.963 138.659 228.348 140.707 226.812 141.794C225.212 142.818 222.462 143.652 222.462 143.652L222.525 145.954C222.525 145.954 218.942 147.105 218.557 149.986C218.236 152.93 224.188 154.466 224.188 154.466V156.959C224.188 156.959 223.101 157.344 222.589 158.944C222.141 160.543 223.101 160.162 223.165 160.991C223.228 161.888 222.141 162.209 222.141 162.209C222.141 162.209 222.204 163.745 222.141 165.726C222.077 167.647 221.307 167.71 221.18 167.71C221.18 167.71 219.644 167.456 219.772 168.734C219.902 169.952 221.117 170.27 221.117 170.27V171.103L215.933 171.167C215.933 171.167 211.517 171.425 209.342 175.326C207.23 179.295 209.342 184.351 209.342 184.351C211.517 190.749 226.236 190.11 226.236 190.11V190.812L223.228 193.245L225.403 195.099C225.34 195.229 225.34 195.42 225.403 195.741C222.204 198.682 218.878 201.179 215.485 203.099C208.318 207.068 199.678 209.434 189.633 209.946C189.184 209.946 188.799 210.009 188.351 210.009C187.712 210.076 187.073 210.076 186.434 210.076C186.176 210.14 185.922 210.076 185.664 210.076C181.498 209.986 177.51 209.588 173.698 208.875C185.534 202.664 195.438 192.736 202.606 179.81C211.727 163.357 216.392 142.537 216.472 117.896C216.476 117.889 216.476 117.879 216.472 117.869C216.496 117.552 216.509 117.23 216.509 116.902V112.549C216.509 100.392 226.363 90.6015 238.523 90.6651L241.913 90.7287C253.882 90.7923 263.479 100.583 263.352 112.549V117.029C264.118 127.459 272.373 134.885 279.798 133.797C281.632 133.536 283.426 132.666 284.948 131.09C285.058 149.721 281.87 166.84 275.693 180.238C271.309 189.745 265.637 196.912 259.099 201.38Z" fill="#F5F5F5"/>
<path d="M289.459 71.6589V210.14C279.524 210.006 270.677 207.821 262.877 203.621C269.369 198.716 274.977 191.385 279.34 181.922C286.631 166.104 289.921 145.388 288.726 123.14C289.118 121.239 289.332 119.061 289.332 116.581V75.5003C289.332 75.2527 289.332 75.0017 289.335 74.7541C289.335 74.1819 289.342 73.6097 289.365 73.0409C289.385 72.5791 289.412 72.1207 289.459 71.6589Z" fill="#F5F5F5"/>
<path d="M125.958 161.376C126.085 161.952 126.216 162.591 126.406 163.17H126.343C126.216 162.594 126.089 162.019 125.958 161.376Z" fill="#F5F5F5"/>
<path d="M429.254 10.7287C424.479 15.2828 413.383 18.281 400.246 23.5411C385.041 29.6278 360.668 41.2557 356.074 67.1985C355.649 69.3668 355.418 71.6054 355.444 73.9745L354.364 144.036C354.056 164.187 347.775 180.423 335.518 192.947C323.264 205.405 307.568 211.485 288.428 211.19L287.246 211.174C272.731 210.484 265.021 205.713 262.508 203.893C261.903 203.454 261.598 203.186 261.571 203.186C261.638 203.13 261.708 203.069 261.775 203.012C262.14 203.22 262.505 203.424 262.876 203.621C269.368 198.716 274.976 191.385 279.339 181.922C286.631 166.104 289.92 145.388 288.725 123.14C288.645 123.548 288.551 123.943 288.454 124.327L288.531 119.994L289.334 74.7541L289.364 73.0409L289.441 68.6775C289.528 67.3624 289.612 66.0474 289.83 64.7993C294.236 29.6311 326.303 5.4317 362.485 5.99051L430.951 7.06463C431.191 8.38971 430.532 9.50733 429.254 10.7287Z" fill="#F5F5F5"/>
<path d="M290.375 19.0037C289.495 34.3157 289.291 53.4826 289.304 72.0002L289.421 75.0553C295.465 25.6827 313.939 36.464 330.69 39.0606C333.701 39.6562 344.185 44.0062 360.634 49.7282C371.078 53.5562 392.205 59.6529 396.405 55.1121L329.11 9.10578C316.067 -0.36051 306.015 -0.40401 300.43 0.228415C292.768 1.68734 291.707 2.95219 290.375 19.0037Z" fill="#F5F5F5"/>
<path d="M25.506 271.464C24.102 274.272 22.36 276.742 20.28 278.874C18.252 281.006 15.756 282.67 12.792 283.866C10.452 282.254 8.554 280.278 7.098 277.938C5.694 275.598 4.576 273.102 3.744 270.45C2.964 267.746 2.418 264.99 2.106 262.182C1.846 259.322 1.716 256.566 1.716 253.914V245.646C1.716 244.034 2.028 242.5 2.652 241.044C3.276 239.588 4.134 238.314 5.226 237.222C6.318 236.13 7.566 235.272 8.97 234.648C10.426 233.972 11.986 233.634 13.65 233.634H17.55V245.724C17.55 246.504 17.524 247.726 17.472 249.39C17.42 251.002 17.42 252.822 17.472 254.85C17.576 256.826 17.732 258.88 17.94 261.012C18.2 263.092 18.616 264.964 19.188 266.628C19.812 268.292 20.618 269.592 21.606 270.528C22.646 271.464 23.946 271.776 25.506 271.464ZM55.146 271.542C53.742 274.402 52 276.898 49.92 279.03C47.892 281.11 45.396 282.748 42.432 283.944C41.86 283.528 41.314 283.06 40.794 282.54C40.274 282.02 39.754 281.5 39.234 280.98C38.454 282.02 37.492 282.982 36.348 283.866C35.204 284.698 33.956 285.426 32.604 286.05C31.304 286.674 29.926 287.168 28.47 287.532C27.066 287.844 25.74 288 24.492 288C22.672 288 20.956 287.766 19.344 287.298C17.784 286.778 16.224 286.076 14.664 285.192C16.744 284.204 18.564 283.06 20.124 281.76C21.684 280.408 23.036 278.926 24.18 277.314C25.376 275.702 26.416 273.96 27.3 272.088C28.236 270.216 29.094 268.24 29.874 266.16C30.758 263.872 31.226 261.48 31.278 258.984C31.382 256.436 31.408 253.966 31.356 251.574C31.304 249.182 31.356 246.894 31.512 244.71C31.668 242.526 32.24 240.628 33.228 239.016C34.216 237.352 35.776 236.052 37.908 235.116C40.092 234.18 43.186 233.712 47.19 233.712C47.19 234.596 47.138 236.182 47.034 238.47C46.93 240.758 46.852 243.384 46.8 246.348C46.8 249.26 46.878 252.276 47.034 255.396C47.242 258.516 47.632 261.35 48.204 263.898C48.828 266.394 49.686 268.396 50.778 269.904C51.87 271.36 53.326 271.906 55.146 271.542ZM73.008 233.712H76.908V253.992C76.908 256.384 76.752 258.88 76.44 261.48C76.18 264.08 75.686 266.654 74.958 269.202C74.282 271.698 73.372 274.09 72.228 276.378C71.084 278.614 69.654 280.616 67.938 282.384C66.274 284.1 64.298 285.478 62.01 286.518C59.722 287.506 57.096 288 54.132 288C50.648 288 47.398 287.09 44.382 285.27C46.41 284.334 48.204 283.19 49.764 281.838C51.324 280.434 52.702 278.926 53.898 277.314C55.146 275.65 56.212 273.856 57.096 271.932C58.032 270.008 58.864 268.032 59.592 266.004C60.164 264.288 60.502 262.312 60.606 260.076C60.71 257.788 60.788 255.448 60.84 253.056C60.892 250.664 61.022 248.324 61.23 246.036C61.438 243.696 61.932 241.616 62.712 239.796C63.492 237.976 64.688 236.52 66.3 235.428C67.912 234.284 70.148 233.712 73.008 233.712ZM103.098 288H92.4897C90.8257 288 89.2657 287.688 87.8097 287.064C86.4057 286.44 85.1577 285.608 84.0657 284.568C83.0257 283.476 82.1937 282.228 81.5697 280.824C80.9457 279.368 80.6337 277.808 80.6337 276.144V244.71C81.6737 246.426 82.7397 247.752 83.8317 248.688C84.9237 249.624 86.0937 250.3 87.3417 250.716C88.5897 251.08 89.9677 251.288 91.4757 251.34C92.9837 251.392 94.6477 251.418 96.4677 251.418V276.612C96.4677 279.316 96.9877 281.552 98.0277 283.32C99.1197 285.088 100.81 286.648 103.098 288ZM120.18 233.634V249.468H92.4897C90.8257 249.468 89.2657 249.156 87.8097 248.532C86.4057 247.908 85.1577 247.05 84.0657 245.958C83.0257 244.866 82.1937 243.592 81.5697 242.136C80.9457 240.68 80.6337 239.146 80.6337 237.534V233.634H120.18ZM120.18 253.602V268.032H98.4177V253.602H120.18ZM120.18 288H109.884C108.376 288 106.92 287.688 105.516 287.064C104.164 286.44 102.942 285.608 101.85 284.568C100.81 283.476 99.9777 282.254 99.3537 280.902C98.7297 279.498 98.4177 278.042 98.4177 276.534V272.166H120.18V288ZM146.592 288H135.906C134.242 288 132.682 287.688 131.226 287.064C129.822 286.44 128.574 285.608 127.482 284.568C126.442 283.476 125.61 282.228 124.986 280.824C124.362 279.368 124.05 277.808 124.05 276.144V270.216H139.884C139.884 272.14 139.858 273.934 139.806 275.598C139.806 277.21 139.962 278.744 140.274 280.2C140.638 281.656 141.288 283.034 142.224 284.334C143.16 285.582 144.616 286.804 146.592 288ZM124.05 262.104V245.49C124.05 243.878 124.362 242.344 124.986 240.888C125.61 239.432 126.442 238.184 127.482 237.144C128.574 236.052 129.822 235.194 131.226 234.57C132.682 233.946 134.242 233.634 135.906 233.634H157.668C159.28 233.634 160.814 233.946 162.27 234.57C163.726 235.194 165 236.052 166.092 237.144C167.184 238.184 168.042 239.432 168.666 240.888C169.29 242.344 169.602 243.878 169.602 245.49V251.418H153.768V249.468H139.884V253.602H163.596C167.6 253.602 169.602 255.604 169.602 259.608V276.144C169.602 278.588 169.134 280.59 168.198 282.15C167.314 283.658 166.118 284.854 164.61 285.738C163.154 286.622 161.464 287.22 159.54 287.532C157.668 287.844 155.744 288 153.768 288C152 288 150.388 287.688 148.932 287.064C147.476 286.44 146.228 285.582 145.188 284.49C144.148 283.346 143.342 282.046 142.77 280.59C142.198 279.082 141.912 277.47 141.912 275.754V272.244H153.768V269.826V268.032H139.884C138.428 268.032 136.79 268.136 134.97 268.344C133.15 268.5 131.434 268.474 129.822 268.266C128.21 268.058 126.832 267.512 125.688 266.628C124.596 265.744 124.05 264.236 124.05 262.104ZM218.027 245.49V249.39H205.157C205.157 247.622 205.131 246.01 205.079 244.554C205.079 243.098 204.871 241.746 204.455 240.498C204.091 239.198 203.441 238.002 202.505 236.91C201.621 235.766 200.269 234.674 198.449 233.634H206.093C207.705 233.634 209.239 233.946 210.695 234.57C212.151 235.194 213.425 236.052 214.517 237.144C215.609 238.184 216.467 239.432 217.091 240.888C217.715 242.344 218.027 243.878 218.027 245.49ZM203.207 288H199.229C197.565 288 196.005 287.688 194.549 287.064C193.145 286.44 191.897 285.608 190.805 284.568C189.765 283.476 188.933 282.228 188.309 280.824C187.685 279.368 187.373 277.808 187.373 276.144V249.39C184.513 249.39 182.147 249.078 180.275 248.454C178.403 247.778 176.921 246.79 175.829 245.49C174.737 244.19 173.957 242.552 173.489 240.576C173.073 238.6 172.865 236.286 172.865 233.634H191.741C193.249 233.634 194.679 233.946 196.031 234.57C197.435 235.194 198.657 236.052 199.697 237.144C200.789 238.184 201.647 239.406 202.271 240.81C202.895 242.162 203.207 243.592 203.207 245.1V288ZM265.863 245.49V249.39H252.993C252.993 247.622 252.967 246.01 252.915 244.554C252.915 243.098 252.707 241.746 252.291 240.498C251.927 239.198 251.277 238.002 250.341 236.91C249.457 235.766 248.105 234.674 246.285 233.634H253.929C255.541 233.634 257.075 233.946 258.531 234.57C259.987 235.194 261.261 236.052 262.353 237.144C263.445 238.184 264.303 239.432 264.927 240.888C265.551 242.344 265.863 243.878 265.863 245.49ZM251.043 288H247.065C245.401 288 243.841 287.688 242.385 287.064C240.981 286.44 239.733 285.608 238.641 284.568C237.601 283.476 236.769 282.228 236.145 280.824C235.521 279.368 235.209 277.808 235.209 276.144V249.39C232.349 249.39 229.983 249.078 228.111 248.454C226.239 247.778 224.757 246.79 223.665 245.49C222.573 244.19 221.793 242.552 221.325 240.576C220.909 238.6 220.701 236.286 220.701 233.634H239.577C241.085 233.634 242.515 233.946 243.867 234.57C245.271 235.194 246.493 236.052 247.533 237.144C248.625 238.184 249.483 239.406 250.107 240.81C250.731 242.162 251.043 243.592 251.043 245.1V288ZM284.839 288H280.861C279.197 288 277.637 287.688 276.181 287.064C274.777 286.44 273.529 285.608 272.437 284.568C271.397 283.476 270.565 282.228 269.941 280.824C269.317 279.368 269.005 277.808 269.005 276.144V244.71C270.097 246.426 271.163 247.752 272.203 248.688C273.295 249.624 274.465 250.3 275.713 250.716C276.961 251.08 278.313 251.288 279.769 251.34C281.277 251.392 282.967 251.418 284.839 251.418V288ZM269.005 233.556H302.623C304.235 233.556 305.769 233.868 307.225 234.492C308.681 235.116 309.955 235.974 311.047 237.066C312.139 238.158 312.997 239.432 313.621 240.888C314.245 242.344 314.557 243.878 314.557 245.49V263.04C314.557 264.392 314.323 265.692 313.855 266.94C313.439 268.188 312.815 269.332 311.983 270.372C311.203 271.36 310.241 272.218 309.097 272.946C308.005 273.674 306.809 274.194 305.509 274.506L314.557 288H295.603L286.789 274.896V259.062H298.723V249.39C296.175 249.39 293.653 249.468 291.157 249.624C288.713 249.78 286.373 249.832 284.137 249.78C281.953 249.728 279.925 249.494 278.053 249.078C276.233 248.61 274.647 247.804 273.295 246.66C271.943 245.464 270.877 243.826 270.097 241.746C269.369 239.666 269.005 236.936 269.005 233.556ZM363.686 270.918V288H347.852V274.896H334.046V288H330.068C328.404 288 326.844 287.688 325.388 287.064C323.984 286.44 322.736 285.608 321.644 284.568C320.604 283.476 319.772 282.228 319.148 280.824C318.524 279.368 318.212 277.808 318.212 276.144V245.412C318.212 243.8 318.524 242.266 319.148 240.81C319.772 239.354 320.604 238.106 321.644 237.066C322.736 235.974 323.984 235.116 325.388 234.492C326.844 233.868 328.404 233.556 330.068 233.556H351.83C353.442 233.556 354.976 233.868 356.432 234.492C357.888 235.116 359.136 235.974 360.176 237.066C361.268 238.106 362.126 239.354 362.75 240.81C363.374 242.266 363.686 243.8 363.686 245.412V263.742C362.646 262.026 361.58 260.7 360.488 259.764C359.396 258.828 358.226 258.178 356.978 257.814C355.73 257.398 354.352 257.164 352.844 257.112C351.336 257.06 349.672 257.034 347.852 257.034V249.39H334.046V259.062C335.658 259.062 337.504 259.01 339.584 258.906C341.664 258.75 343.796 258.672 345.98 258.672C348.164 258.672 350.322 258.828 352.454 259.14C354.586 259.452 356.484 260.05 358.148 260.934C359.812 261.818 361.138 263.066 362.126 264.678C363.166 266.238 363.686 268.318 363.686 270.918ZM396.752 249.468H384.896V245.49C384.896 243.93 385.182 242.448 385.754 241.044C386.378 239.588 387.21 238.314 388.25 237.222C389.29 236.13 390.486 235.272 391.838 234.648C393.242 233.972 394.75 233.634 396.362 233.634H400.73C402.342 233.634 403.876 233.946 405.332 234.57C406.788 235.194 408.036 236.052 409.076 237.144C410.168 238.184 411.026 239.432 411.65 240.888C412.274 242.344 412.586 243.878 412.586 245.49V251.418H396.752V249.468ZM396.752 272.166V270.216H412.586V276.144C412.586 277.808 412.274 279.368 411.65 280.824C411.026 282.228 410.168 283.476 409.076 284.568C408.036 285.608 406.788 286.44 405.332 287.064C403.876 287.688 402.342 288 400.73 288H378.968C377.304 288 375.744 287.688 374.288 287.064C372.884 286.44 371.636 285.608 370.544 284.568C369.504 283.476 368.672 282.228 368.048 280.824C367.424 279.368 367.112 277.808 367.112 276.144V245.49C367.112 243.878 367.424 242.344 368.048 240.888C368.672 239.432 369.504 238.184 370.544 237.144C371.636 236.052 372.884 235.194 374.288 234.57C375.744 233.946 377.304 233.634 378.968 233.634H389.654C387.47 234.882 385.806 236.39 384.662 238.158C383.518 239.926 382.946 242.084 382.946 244.632V272.166H396.752ZM432.235 288H428.257C426.593 288 425.033 287.688 423.577 287.064C422.173 286.44 420.925 285.608 419.833 284.568C418.793 283.476 417.961 282.228 417.337 280.824C416.713 279.368 416.401 277.808 416.401 276.144V264.444C417.493 266.212 418.559 267.564 419.599 268.5C420.691 269.384 421.861 270.034 423.109 270.45C424.357 270.866 425.709 271.1 427.165 271.152C428.673 271.204 430.363 271.23 432.235 271.23V288ZM432.235 253.368H446.119V233.634H461.953V252.432C461.953 254.928 461.381 256.852 460.237 258.204C459.145 259.556 457.481 260.674 455.245 261.558C457.533 262.442 459.223 263.56 460.315 264.912C461.407 266.212 461.953 268.11 461.953 270.606V288H446.119V269.202C444.507 269.202 442.635 269.28 440.503 269.436C438.423 269.54 436.265 269.592 434.029 269.592C431.845 269.54 429.687 269.358 427.555 269.046C425.475 268.734 423.603 268.136 421.939 267.252C420.275 266.368 418.923 265.146 417.883 263.586C416.895 261.974 416.401 259.894 416.401 257.346V233.634H432.235V253.368Z" fill="white"/>
</svg>
