<?xml version="1.0" encoding="UTF-8"?> <svg xmlns="http://www.w3.org/2000/svg" xmlns:xlink="http://www.w3.org/1999/xlink" version="1.1" x="0px" y="0px" viewBox="0 0 500 500" style="enable-background:new 0 0 500 500;" xml:space="preserve"> <style type="text/css"> .st0{display:none;} .st1{display:inline;} .st2{fill:#FFB932;} .st3{fill:#F9B736;} .st4{display:none;fill:none;stroke:#FF00E5;stroke-miterlimit:10;} </style> <g id="Layer_1"> <g class="st0"> <g id="Layer_1-2_00000019680031563824924780000011107928130959766669_" class="st1"> <g> <path class="st2" d="M263.9,292.7c-19.9-19.2-38.9-37.7-58.1-55.9c-24.9-23.8-47-24.5-70.8-0.2c-22.3,22.7-42.9,47-64.2,70.6 c-2.3-1.6-4.6-3.1-6.8-4.6c-0.5-4.1-1.4-8.1-1.4-12.1c-0.1-55.5-0.2-111.1,0-166.6c0.2-37.2,23.5-61.1,60.4-61.2 c85-0.2,170.1-0.3,255.1,0c34.3,0.1,59.1,23.5,59.3,57c0.5,78.1,0.1,156.2,0.1,234.3c0,1.6-0.6,3.1-1.6,7.2 c-24.3-23.3-47.4-45.5-70.5-67.7c-6.7-6.4-13.1-13.1-20-19.3c-19.7-17.9-42.4-17.9-62.1,0C277.1,279.9,271,286,263.9,292.7 L263.9,292.7z M317.9,135.5c-25.1,0-46.3,20.8-46.8,45.9c-0.5,25.8,21,47.7,46.7,47.7c25,0,46.3-20.8,46.8-45.9 C365.1,157.5,343.7,135.6,317.9,135.5L317.9,135.5z"></path> <path class="st2" d="M159.5,437.4c50.7-48.9,97.7-94.8,145.7-139.8c3.4-3.3,15.3-3.2,18.8,0c34.7,32.2,68.8,65.3,102.3,98.7 c2.9,2.9,3.3,11.9,0.9,15.8c-9.6,15.8-24.8,24.9-43.1,25.1C310.8,437.8,237.5,437.4,159.5,437.4z"></path> <path class="st2" d="M238.7,317.3c-39,37.7-79,76.6-119.6,115.1c-2.9,2.7-9.5,3.4-13.8,2.5c-22.5-4.9-39.9-25.4-42.3-49.2 c-2.1-21.8,0-40.4,19.8-56.4c26.4-21.3,49.8-46.4,73.8-70.6c10-10.1,17.9-10.3,27.4,0.1C201.3,278,219.3,296.8,238.7,317.3 L238.7,317.3z"></path> <path class="st2" d="M317.3,204.3c-6.9-10.3-14.6-16.8-13.9-22.2c0.7-5.6,9.6-14.2,14.8-14.1c5.1,0.1,13.6,9.1,14.1,14.8 C332.7,188.2,324.7,194.3,317.3,204.3L317.3,204.3z"></path> </g> </g> </g> <g class="st0"> <g class="st1"> <g id="Layer_1-2_00000041271457041559443500000008229742782468004540_"> <g> <path class="st2" d="M140.9,182.1c11.7-6.8,24.8-5.4,34.5,3.3c6.9,6.2,11.3,14,14,22.5c3.8,11.8,6.8,23.8,10.1,35.7 c0.2,0.6,0.3,1.2,0.6,2.2c2.8-1.4,5.4-2.7,7.9-4c12.6-6.5,25.4-12.6,37.7-19.7c12.2-7,23.8-15,35.6-22.6 c19.1-12.3,38.1-24.6,57.1-37c3.6-2.4,7.5-3.6,11.7-2.6c5.5,1.2,9.3,4.2,10.6,9.9c1.4,5.9,0.1,10.9-4.6,15.1 c-20.1,17.5-40.1,35-60.1,52.6c-5.3,4.7-4.8,2.7-1.4,8.7c6,10.7,12.7,21.1,17.7,32.3c8,17.8,12.1,36.7,10.6,56.4 c-0.3,4.3-1.2,8.6-2.2,12.9c-1.7,6.7-5.5,11.4-12.2,14.4c-20.7,9.3-41,19.2-61.7,28.7c-14.4,6.6-29.9,8.1-45.5,7.6 c-0.9,0-2.1-0.8-2.7-1.5c-19.8-23.8-39.5-47.7-59.1-71.7c-1-1.2-1.2-3.6-0.9-5.3c2-15.4,3.9-30.8,6.3-46.1 c2.7-17.4,5.8-34.8,4.3-52.6c-1-11.9-3.6-23.4-7.2-34.7C141.8,185.1,141.4,183.6,140.9,182.1L140.9,182.1z"></path> <path class="st2" d="M248.3,101.6c-1.2,16.2-2.4,32.4-3.6,48.9h-14.3c-0.7-16.2-1.5-32.4-2.2-48.9 C228.2,101.6,248.3,101.6,248.3,101.6z"></path> <path class="st2" d="M200.6,160.3c-4.2,2.4-8,4.6-12,6.9c-9-11.8-17.9-23.4-26.9-35.2c5.2-4.4,10.2-8.6,15.7-13.2 C185.1,132.6,192.7,146.3,200.6,160.3z"></path> <path class="st2" d="M309.9,135.3c-9.7,9.8-19.1,19.2-28.7,28.9c-2.8-2.2-5.6-4.7-8.8-7.3c7.5-10.4,14.9-20.6,22.6-31.1 C300.2,129,305.2,132.3,309.9,135.3L309.9,135.3z"></path> </g> </g> </g> <g class="st1"> <g id="Layer_1-2_00000074403889240186904040000010627747528074810782_"> <g> <path class="st2" d="M167.9,335.8c-29.5-1.6-43.7-10.8-49-31.3c-1.1-4.3-1.4-9-1.5-13.5c-0.1-33.7-0.1-67.4,0-101 c0.1-27,17.1-44.1,43.9-44.2c25.9-0.1,51.7,0,77.7,0c-13.4,51.1-4.8,83.2,27.8,105.6c30.9,21.2,65.8,19.1,104.6-8.4 c-1.4,23.6-0.8,45.2-4.7,66c-3,16.3-20.2,26.1-37.8,26.3c-20,0.2-40,0.5-60-0.1c-9-0.3-15.9,2.3-23,7.8 c-16.2,12.8-33.1,24.9-49.6,37.4c-5.9,4.4-11.9,7.6-19.3,3.9c-7.7-3.8-9.4-10.6-9.3-18.5C168,356,167.9,346.3,167.9,335.8 L167.9,335.8z"></path> <path class="st2" d="M382.7,184.1c-0.2,38.3-31.8,69.3-70.3,69c-38.3-0.3-69.1-32-68.7-70.5c0.4-37.8,31.7-68.5,69.7-68.4 C351.9,114.2,382.9,145.7,382.7,184.1z M300.2,200.2c-6.5-6.8-11.7-13.1-17.9-18.1c-2.7-2.2-7.5-1.7-11.4-2.4 c0.7,3.6,0.4,8.2,2.5,10.7c6.1,7.2,13.4,13.4,19.8,20.3c5.3,5.7,9.7,5.3,15-0.1c14.4-14.8,29.5-29.1,43.7-44.2 c2.6-2.8,2.4-8,3.6-12.2c-4.1,1.1-9.4,0.9-12.2,3.5C328.9,171,315.3,185.1,300.2,200.2L300.2,200.2z"></path> </g> </g> </g> <g class="st1"> <g id="Layer_1-2_00000110456410273481079570000013195726640225501573_"> <path class="st2" d="M250.2,123.6c50.7,0,96.7,30.9,116.3,77.8c19.8,47.4,9,101.7-27.5,138c-36.2,36-90.1,46.9-137.1,27.1 c-7.2-3-13.6-3.7-21.1-1.2c-11.6,3.9-23.6,6.9-35.4,9.9c-14.5,3.7-24.2-6.1-20.8-20.6c0.7-3.1,1.6-6.1,2.6-9.1 c6.9-21,8.3-40.5,1.5-63.5C105.4,202.4,167.3,123.5,250.2,123.6z M251,218.4c-17.2,0-34.4,0.1-51.6,0c-6.8,0-12.4,1.9-12.4,9.5 c0,7.6,5.6,9.6,12.4,9.5c33.7-0.1,67.4-0.1,101,0c6.8,0,12.4-1.9,12.4-9.5c0-7.6-5.6-9.6-12.4-9.5 C283.9,218.6,267.5,218.4,251,218.4z M237.3,262.7c-12.6,0-25.2,0.1-37.9,0c-6.8,0-12.4,1.9-12.4,9.5c0,7.6,5.6,9.5,12.4,9.5 c25.2-0.1,50.5-0.1,75.8,0c6.8,0,12.4-2,12.4-9.5c0-7.6-5.6-9.6-12.4-9.5C262.6,262.8,249.9,262.7,237.3,262.7L237.3,262.7z"></path> </g> </g> <g class="st1"> <g id="Layer_1-2_00000001649502859818969500000008905678964129425298_"> <path class="st2" d="M250.4,376.4c-69.7,0.1-126.7-56.7-126.7-126.3c0-69.7,56.9-126.5,126.5-126.5c69.2,0,126,56.6,126.2,125.8 C376.6,319.1,319.9,376.2,250.4,376.4z M249.8,262.3c11.9,12.2,22.1,22.8,32.3,33.3c4.7,4.8,10,7.4,15.4,1.8 c5.5-5.7,2.6-10.8-2.2-15.5c-2.5-2.5-4.9-5-7.5-7.4c-8.3-7.9-16.7-15.6-26-24.3c13-12.6,24.4-23,34.8-34.3 c2.4-2.6,2.6-9.4,0.8-12.7c-1.2-2.2-7.8-2.4-11.7-1.8c-2.6,0.4-4.8,3.8-7,6.1c-9.4,9.7-18.7,19.5-28.9,30.2 c-12.4-12.8-22.8-24.3-34.2-34.6c-2.6-2.4-9.4-2.6-12.7-0.8c-2.2,1.2-2.4,7.8-1.8,11.7c0.4,2.6,3.8,4.8,6.1,7 c9.7,9.4,19.5,18.7,30.1,28.9c-12,11.6-22.3,21.6-32.5,31.6c-5,4.8-8.7,10.1-2.5,16.2c6.2,6,11.5,2,16.2-2.9 c9.9-10.3,19.9-20.7,31.1-32.4L249.8,262.3z"></path> </g> </g> <g class="st1"> <g id="Layer_1-2_00000154404417098290586450000011503963486042812049_"> <g> <path class="st2" d="M234.1,325.8c-27.3,0-54.7,0.1-82,0c-21.8-0.1-34.8-12.9-34.9-34.5c-0.1-38.2-0.1-76.4,0-114.7 c0-21,13.1-34,34.2-34c55.1-0.1,110.1-0.1,165.2,0c21.2,0,34.3,12.9,34.4,33.9c0.1,38.6,0.1,77.1,0,115.7 c-0.1,20.4-13.3,33.4-33.7,33.6C289.5,325.9,261.9,325.8,234.1,325.8z M205.6,234.1c0,7.7-0.2,15.4,0,23.1 c0.4,10.2,6.5,14.3,15.2,9.6c14.2-7.6,28.2-15.6,42-23.9c8.1-4.9,8.1-12.6,0.1-17.5c-13.7-8.4-27.8-16.3-41.9-23.9 c-8.7-4.7-14.9-0.7-15.3,9.5C205.4,218.7,205.7,226.4,205.6,234.1L205.6,234.1z"></path> <path class="st2" d="M363.7,177c13,7.1,18.7,16.3,18.8,28.4c0.3,30.5,0.6,61.1-0.1,91.6c-0.8,32.6-27.6,59.7-60.2,60.2 c-47.4,0.7-94.8,0.4-142.1,0.1c-12.3,0-21.8-5.7-28-18.8c5.1,0,8.8,0,12.5,0c50.2,0,100.4,0,150.5,0c30.4,0,48.4-18,48.5-48.4 c0-33.7,0-67.4,0-101.1L363.7,177L363.7,177z"></path> </g> </g> </g> <g class="st1"> <g id="Layer_1-2_00000042006139659711766260000003999673728353343416_"> <path class="st2" d="M250.4,123.6c50.6,0.1,96.7,31.1,116.2,78.1c19.5,47.2,9,100.8-27.1,137.2c-35.8,36.2-90.1,47.5-136.9,28 c-8-3.4-15-3.9-23.1-1.2c-10.9,3.6-22.2,6.5-33.4,9.3c-15.8,4.1-25.2-5.7-21.1-21.6c0.6-2.4,1.2-4.8,2-7.1 c7.3-21.3,8.5-41.1,1.7-64.5C105.4,202.1,167.5,123.4,250.4,123.6z M218.3,250c-1-7.7-5.1-12.5-13-12.4 c-7.3,0.1-11.9,4.6-12.1,11.9c-0.2,7.9,4.4,12.7,12.2,12.9C213.3,262.6,217.3,257.6,218.3,250L218.3,250z M237.1,250 c1,7.1,4.7,12.3,12.6,12.4c7.3,0.1,12.1-4.3,12.5-11.5c0.6-7.8-3.9-12.9-11.7-13.3C242.6,237.1,238.5,241.9,237.1,250z M293,237.3c-6.8,1.6-11.8,5.5-11.3,13.5c0.5,7.2,5,11.7,12.4,11.6c7.8-0.1,12.5-4.8,12.4-12.7C306.4,241.8,301.3,238,293,237.3 L293,237.3z"></path> </g> </g> <g class="st1"> <g id="Layer_1-2_00000093883570099604180950000006770871728470306979_"> <path class="st2" d="M249.7,123.6c51.1,0,97.6,31,117,78.4c19.4,47.3,8.7,100.9-27.4,137.2c-36.2,36.4-90.6,47.3-138,27.2 c-6.9-2.9-12.9-3.5-20.1-1.1c-12,4-24.2,7.2-36.4,10.2c-13.8,3.5-23.6-6.4-20.3-20.3c0.9-3.7,1.9-7.5,3.2-11.1 c7.2-20.4,7.6-39.3,1.1-61.4C105.3,202.9,166.9,123.7,249.7,123.6z"></path> </g> </g> <g class="st1"> <g id="Layer_1-2_00000096749886404166786080000005952330240699590057_"> <path class="st2" d="M250,123.7c71.7,0,128.7,59.6,126.3,132c-2.3,69.5-64.4,125.5-134.4,120.1c-14.4-1.1-28.4-7.1-42.6-10.4 c-4.5-1.1-9.6-2.1-13.9-1c-13.3,3.1-26.3,7.3-39.5,10.8c-14.8,3.8-24.6-6.4-20.8-21.4c0.8-3,1.5-6.1,2.5-9.1 c7.3-21,8.1-40.5,1.3-63.4C105.2,202.8,167.5,123.7,250,123.7z M213.9,260.7c-4,5.7-8.8,13.7-14.9,20.7c-4.5,5.2-9,9.8-3.1,16.1 c5.9,6.3,11.5,2.4,16.4-2.2c19-18.3,25.6-41.4,24.6-66.9c-0.4-10.8-9.2-19.8-19.8-21.9c-10.7-2.1-19.4,1.7-25.8,10.4 c-6.3,8.6-6.9,20.7,0.2,28.3C197,250.9,204.7,254.4,213.9,260.7L213.9,260.7z M291.8,257.9c-6.1,8.5-11.3,16.7-17.5,23.9 c-4.3,5-8,9.5-2.8,15.4c5.2,5.9,10.8,3.4,15.6-1.1c20-18.6,26.9-42.3,25.5-68.6c-0.6-12.4-12.3-21.6-24.5-21.6 c-11.8-0.1-22.5,8.5-25,20.2c-2.6,11.9,4.3,24.1,16.2,28.5C282.5,255.9,285.9,256.4,291.8,257.9z"></path> </g> </g> <g class="st1"> <g id="Layer_1-2_00000049911855276565153330000017750163072894962052_"> <path class="st2" d="M249.9,390.4c-77.5-0.1-140.3-63-140.3-140.5c0-77.6,63.2-140.6,140.8-140.4 c77.5,0.2,140.2,63.2,140.1,140.7C390.2,327.7,327.3,390.5,249.9,390.4L249.9,390.4z M207.9,283.5c-0.3,0.1-0.7,0.3-1,0.5 c-5-5-9.9-10.2-14.9-15.2c-5.9-5.7-14.1-6.4-20.4-1.9c-4.4,3.1-4.8,6.3-1,10.1c15.7,15.8,31.4,31.5,47.2,47.1 c6.4,6.3,14.1,9.9,23.1,10.1c10.4,0.1,20.8,0.2,31.1,0c18.7-0.4,34-15.5,34.2-34.3c0.2-32.6,0.1-65.2,0-97.8 c0-5.1-2.8-8.3-7.1-8.2c-4.3,0-6.9,3.2-6.9,8.4c0,8.3,0,16.7,0,25c0,5.5-2.7,8.7-7.1,8.7c-4.3,0-6.9-3.3-7-8.8 c0-15.7,0-31.3,0-46.9c0-2.6,0.1-5.3-0.1-7.9c-0.3-3.9-3.3-6.5-7-6.5c-3.6,0-6.5,2.7-6.9,6.6c-0.1,1.3,0,2.6,0,3.9 c0,17.1,0,34.2,0,51.3c0,5.4-3.4,8.9-7.9,8.2c-3.8-0.5-6.1-3.5-6.1-8.3c0-17.7,0-35.4,0-53.1c0-5.5-2.7-8.7-7-8.7 c-4.4,0-7,3.2-7,8.7c0,15.1,0,30.1,0,45.2c0,3.2,0.1,6.5-0.1,9.6c-0.3,3.9-3.3,6.5-6.9,6.5s-6.5-2.7-7-6.5c-0.1-1.2,0-2.3,0-3.5 c0-12.7,0-25.4,0-38.1c0-3.6-1.4-6.8-4.9-7.3c-2.3-0.4-5.5,0.6-7.3,2.2c-1.4,1.2-1.7,4.2-1.8,6.5c-0.1,30-0.1,59.9-0.1,89.9v4.6 L207.9,283.5z"></path> </g> </g> <g class="st1"> <g id="Layer_1-2_00000088833122375023083460000010605977373791036830_"> <g> <path class="st2" d="M250.3,123.7c71.7,0.1,128.6,59.9,126,132.3c-2.5,69.4-64.8,125.4-134.7,119.9c-13.7-1.1-27-6.8-40.7-9.8 c-5.8-1.3-12.2-2.2-17.9-1c-12.7,2.6-25,6.9-37.5,10.1c-14.2,3.6-24.3-6.5-20.8-20.7c0.9-3.7,1.8-7.5,3.1-11.1 c7.2-20.3,7.9-39.2,1.1-61.3C104.8,203.3,167.4,123.5,250.3,123.7z M293.9,295.9c-1.5-9-3.6-18-4.2-27 c-0.3-4.1,1.5-9.3,4.1-12.5c5.3-6.5,12.1-11.7,17.8-18c6.4-7,4.1-13.9-5-16.5c-2.7-0.7-5.5-1.4-8.3-1.4 c-18.2,0.6-30.5-6.9-35.5-25.1c-0.7-2.7-2.3-5.1-3.7-7.5c-5.3-9-14.8-9.5-18.1,0.3c-7.7,22.5-21.3,33.8-45.9,33.6 c-11.2-0.1-14.6,10.7-5.8,17.3c19.2,14.3,25.9,31.1,17.3,53.9c-1.1,2.9,1,8.9,3.6,10.8c2.6,1.9,8.1,1.4,11.5,0 c7.4-3,14.1-7.9,21.6-10.8c3.9-1.5,9.3-1.4,13.3,0.1c7.8,3,14.9,7.9,22.5,11.4C287.1,308.2,293.7,304,293.9,295.9L293.9,295.9z "></path> <path class="st2" d="M215.8,238.3c18.4,0.7,28.7-8,34.2-24.8c5.4,17.2,15.9,25.3,34.2,24.4c-13.7,10.6-19.6,23.1-13.1,40.6 c-14.5-11.1-28-10.7-42.2,0C233.9,261.7,231.3,248.4,215.8,238.3L215.8,238.3z"></path> </g> </g> </g> <g class="st1"> <g id="Layer_1-2_00000044165514017769871050000008513876294279912114_"> <path class="st2" d="M249.6,120.5c73.6-0.1,132.2,60.8,130,135.1C377.4,326.9,314,384.4,242,379.2c-14.8-1.1-29.1-7.2-43.8-10.6 c-5-1.1-10.5-2.1-15.3-1c-13.3,3-26.3,7.3-39.5,10.8c-15.4,4-25.6-6.2-21.8-21.5c1.1-4.2,1.9-8.4,3.4-12.5 c7.1-20.2,7.8-38.8,0.9-60.8C100.8,203.1,164.7,120.6,249.6,120.5z M288.9,250.1c0,14-0.1,28.1,0,42.1 c0.1,10.4,5.1,16.7,13.2,16.1c9.3-0.7,12.8-6.7,12.8-15.5c0-28.4,0-56.9,0-85.3c0-8.8-3.4-14.8-12.7-15.5 c-8.1-0.6-13.1,5.7-13.2,16C288.8,222,288.9,236.1,288.9,250.1L288.9,250.1z M185.1,262c0,10.8-0.1,21.6,0,32.4 c0.1,8.5,4.5,13.9,13.1,13.8c8,0,12.5-5.3,12.6-13.2c0.2-21.2,0.2-42.4,0-63.7c-0.1-7.9-4.5-13.2-12.6-13.3 c-8.6-0.1-13,5.3-13.2,13.8C184.9,241.9,185.1,252,185.1,262L185.1,262z M262.9,275.7L262.9,275.7c0-6.5,0.3-12.9-0.1-19.4 c-0.5-7.5-4.9-12.2-12.4-12.4c-8.1-0.2-12.9,4.6-13.2,12.6c-0.4,12.9-0.4,25.9,0,38.8c0.2,7.9,4.9,13,12.9,12.9 c8.1,0,12.4-5.1,12.8-13.1C263.1,288.7,262.9,282.2,262.9,275.7z"></path> </g> </g> <g class="st1"> <g id="Layer_1-2_00000072249647059246848230000000471376296194536842_"> <path class="st2" d="M120.3,250.3c-0.1-71.4,58.3-130,129.6-130c71.4,0,129.8,58.5,129.7,129.9 c-0.1,70.9-58.3,129.2-129.1,129.4C179.2,379.9,120.4,321.5,120.3,250.3z M240.3,259.9c0,5.6,0,9.8,0,14.1 c0,10.4-0.7,20.9,0.7,31.2c0.5,3.5,5.7,8.2,9.4,8.9c2.4,0.5,6.9-4.9,8.7-8.5c1.5-2.9,0.6-7.1,0.6-10.6c0-11.4,0-22.7,0-35.1 c5.6,0,9.4,0,13.4,0c10.1,0,20.1,0.1,30.2-0.1c6.5-0.1,12.4-3.1,10.9-10.1c-0.8-3.7-6.6-7-10.9-8.9c-2.9-1.4-7.1-0.3-10.7-0.3 c-10.7,0-21.3,0-32.9,0c0-13.8,0-25.9,0-38.1c0-7.5,1-16.9-10-16.7c-10.1,0.1-9.3,9-9.4,16.2c0,12.5,0,24.9,0,38.7 c-15.7,0-30.1-0.6-44.3,0.4c-3.7,0.2-7.2,5.3-10.7,8.2c2.9,3.5,5.3,7.8,9,10.1c2.6,1.6,7,0.7,10.6,0.7 C216.3,259.9,227.7,259.9,240.3,259.9z"></path> </g> </g> <g class="st1"> <g id="Layer_1-2_00000176755423748505242550000013661211306206946481_"> <g> <path class="st2" d="M231.8,153.4c-16.2,15.2-32.3,30.3-48.6,45.6c6.1,9.9,13.1,18.8,24,23.5c10.1,4.3,19.5,1.6,28.1-4.2 c4-2.7,7.3-6.3,11-9.3c1.1-0.9,2.5-1.8,3.8-2.1c6.3-1.2,12.7-2.3,19-3.3c1-0.1,2.5,0.3,3.2,1c23.3,23.3,46.5,46.6,69.7,69.9 c4,4,7.3,8.5,8.6,14.3c2.8,13.4-6.4,24.3-20,23.4c-3.7-0.2-7.3-1.5-11-2.3c-0.5,4.3-1.7,8.9-4.9,12.6 c-5.8,6.9-13.2,9.1-21.7,6.9c-4.6-1.2-8.8-3.5-13.3-5.3c0.1,8.9-5.2,14.3-13.7,16.9c-8.4,2.5-15.6-0.1-22.2-5.8 c-0.1,0.7-0.3,1-0.3,1.4c-2,11.2-13.6,17.5-23.9,12.4c-4.3-2.1-8.2-5.1-11.5-8.5c-23.9-23.8-47.7-47.9-71.6-71.8 c-1.4-1.4-3.3-2.4-5.1-3c-4.6-1.6-9.4-2.9-14.3-4.3c0.3-1,0.5-1.8,0.8-2.6c10.3-30,20.7-59.9,31-89.9c0.7-1.9,1.4-2.9,3.5-2.7 c0.3,0,0.7,0,1.1,0c19.7,0.7,37.9-5.2,55.9-12c3.9-1.4,8-2.5,12.1-3.4C225.2,149.9,228.5,151.1,231.8,153.4L231.8,153.4z"></path> <path class="st2" d="M365.3,164c5.2,28.3,10.3,56.3,15.4,84.2c0.7,3.9,1.5,7.7,2.1,11.6c0.1,1.1-0.1,2.5-0.8,3.4 c-4.2,5.7-8.5,11.2-13,17.1c-5.3-4.8-10.5-9.4-15.6-14.2c-21.6-19.7-43.1-39.5-64.7-59.2c-4.3-3.9-8.5-7.9-12.9-11.8 c-0.9-0.8-2.5-1.4-3.7-1.2c-9,1.4-18,3-26.9,4.6c-1.2,0.2-2.4,1-3.4,1.8c-4.3,3.6-8.1,7.9-12.7,11c-10.1,6.6-20.1,5.3-28.7-3.2 c-1.9-1.9-3.5-4.1-5.2-6.1c-1-1.1-1-2,0.2-3.1c11.9-11.1,23.6-22.4,35.7-33.3c3.1-2.8,7.5-4.5,11.5-6.2 c8.3-3.4,16.6-6.4,25-9.4c3.5-1.3,7-1.2,10.5-0.1c13.1,4.2,26.3,8.1,39.3,12.4c9.7,3.2,19.4,4.4,29.5,3.1 C353.1,164.7,359.2,164.5,365.3,164L365.3,164z"></path> </g> </g> </g> <g class="st1"> <g id="Layer_1-2_00000110452237583754598700000002362386776746063540_"> <g> <path class="st2" d="M243.2,165.5c-21.9,19.7-43.5,39-65.3,58.5c5.9,12.9,13.8,23.4,28.5,26.6c8.3,1.8,16.2-0.1,23.2-4.6 c4.8-3.1,9-7.1,13.5-10.6c1.4-1,2.9-2.2,4.5-2.6c17.1-4.5,34.1-8.8,51.2-13.4c2.2-0.6,3.7-0.2,5.5,1.4 c17.1,15.1,34.3,30.2,51.4,45.3c4.3,3.7,6.8,8.5,7.8,14c2,11.8-8.4,19.8-17.1,20.5c-3,0.2-6.1,0-9.2,0 c2.4,20.2-15.3,29.9-34.7,22.3c2.3,9-1.4,15.2-8.8,19.7c-7.4,4.4-14.9,3.6-22.5-0.3c0.9,5.7-0.7,10.4-4.5,14.3 c-5.6,5.6-12.4,6.3-19.6,4.2c-6-1.8-11.4-4.6-16-9c-31.4-29.3-62.9-58.4-94.2-87.8c-20.8-19.5-28.4-43.8-21.2-71.4 c7.1-27.4,25.3-45.1,52.8-51.9c23.5-5.9,44.8-0.3,63.6,15C235.8,158.6,239.4,162.1,243.2,165.5L243.2,165.5z"></path> <path class="st2" d="M188.5,226.7c11.6-10.5,22.6-20.2,33.5-30c14.1-12.7,28.3-25.2,42.4-38c11.2-10.2,23.9-17,38.9-19.4 c36.6-6,72.4,17.1,81.4,53.1c5.8,23.1,1.2,44.3-13.4,63.2c-0.2,0.3-0.5,0.6-0.7,0.9c-0.1,0.1-0.3,0.2-0.7,0.4 c-1.9-1.4-4-2.9-6-4.3c-19-13.8-38-27.6-56.8-41.5c-2-1.4-3.6-1.9-6.1-1.3c-19.3,5.1-38.7,10-58,15c-1.7,0.4-3.4,1.5-4.6,2.8 c-5,5-10.1,9.8-16.8,12.6c-8.1,3.5-15.9,2.9-22.8-2.7C195,234.4,192,230.5,188.5,226.7z"></path> </g> </g> </g> <g class="st1"> <g id="Layer_1-2_00000071524067917990298590000015324096515778697112_"> <g> <path class="st2" d="M336.7,292.9c-16.2-15.7-32.2-31.3-48.3-46.7c-10.2-9.7-20.4-11.5-30.5-5.7c-3,1.7-5.8,4.1-8.1,6.6 c-3.1,3.2-5.8,6.9-11.3,13.5c-10.6-12-18.9-22.4-28.2-31.9c-13.9-14-26.6-13.7-41.1,0.2c-12.4,11.9-24.8,23.7-37.3,35.6 c-0.1,0.1-0.6,0-1.6-0.2c0-31.4-1.4-62.8,0.5-94.2c1.4-22.9,22.3-40,45.5-40.2c38.6-0.4,77.2-0.4,115.8,0 c24.9,0.3,45.6,19.8,46.1,44.4c0.7,38.6,0.2,77.2,0.2,115.8C338.3,290.8,337.7,291.3,336.7,292.9L336.7,292.9z M271.9,212.1 c8.3,0,15.5-6.8,15.8-15.1c0.3-8.7-6.9-16.3-15.7-16.3c-8.3,0-15.5,6.8-15.8,15.1C256,204.5,263.2,212.1,271.9,212.1 L271.9,212.1z"></path> <path class="st2" d="M190.9,338.4c19.7-21.6,40.9-45.8,63.3-68.9c16.9-17.4,12.9-18.2,30.9,0.2c15,15.3,28.8,31.6,44.4,48.8 c-6.4,10.8-19,19.4-35.4,19.7C258,338.8,221.9,338.3,190.9,338.4L190.9,338.4z"></path> <path class="st2" d="M171.3,351.1c25,0,47.7,0,70.4,0c18.3,0,36.5,0.2,54.8,0c31.4-0.4,54.3-23.3,54.5-54.9 c0.2-37.6,0-75.1,0-112.7c0-3.3,0-6.7,0-11.8c12.9,10,18.6,21.6,18.7,35.4c0.4,31.2,0.7,62.5,0,93.7c-1,37.2-32.1,68-69.2,68.9 c-30.9,0.7-61.8,0.4-92.7,0.1C193.8,369.7,182,363.9,171.3,351.1L171.3,351.1z"></path> <path class="st2" d="M220.5,267.5c-19,21-38.4,42.6-58.2,63.8c-1.5,1.6-6.6,1.7-8.8,0.4c-12.9-7.3-20.5-18.8-22.8-33.4 c-0.4-2.8,1.4-6.8,3.5-8.9c16.4-16.3,33.2-32.1,49.6-48.3c4.6-4.5,8.2-4.2,12.3,0.3C205.1,251.2,214.3,260.8,220.5,267.5 L220.5,267.5z"></path> </g> </g> </g> <g class="st1"> <g id="Layer_1-2_00000013907744018263085840000007209529190521212333_"> <path class="st2" d="M379.1,250c0,71.2-57.9,129.1-129.1,129.1c-20.5,0-40.9-5-59.1-14.4l-49.5,13.8c-1.4,0.4-2.9,0.6-4.3,0.6 c-4.2,0-8.4-1.7-11.5-4.7c-4.1-4.1-5.7-10.1-4.1-15.8l13.8-49.4c-9.4-18.3-14.4-38.7-14.4-59.2c0-71.1,57.9-129,129.1-129 S379,178.8,379.1,250L379.1,250z M259.7,272.6c0-10,4.9-14.5,11.6-20.8c7.8-7.2,17.4-16.3,17.4-34.1c0-21.4-17.4-38.7-38.7-38.7 s-38.7,17.4-38.7,38.7c0,5.3,4.3,9.7,9.7,9.7s9.7-4.3,9.7-9.7c0-10.7,8.7-19.4,19.4-19.4s19.4,8.7,19.4,19.4c0,9-3.9,13-11.3,20 c-7.9,7.4-17.8,16.6-17.8,34.9c0,5.3,4.3,9.7,9.7,9.7S259.7,277.9,259.7,272.6L259.7,272.6z M250,295.2 c-7.2,0-12.9,5.8-12.9,12.9c0,7.1,5.8,12.9,12.9,12.9s12.9-5.8,12.9-12.9C262.9,301,257.1,295.2,250,295.2z"></path> </g> </g> <g class="st1"> <g id="Layer_1-2_00000132797813230372556550000013318179717097371810_"> <path class="st2" d="M193.1,125.8l-56.9,41.4v207h227.8v-207l-56.9-41.4L250,167.2L193.1,125.8z M193.1,146.5l15.5,11.3v9.4h-31 v-9.4C177.5,157.8,193.1,146.5,193.1,146.5z M306.9,146.5l15.5,11.3v9.4h-31v-9.4C291.4,157.8,306.9,146.5,306.9,146.5z M156.8,198.2h20.7v20.7h-20.7V198.2z M208.6,198.2h20.7v20.7h-20.7V198.2z M270.7,198.2h20.7v20.7h-20.7V198.2z M322.5,198.2 h20.7v20.7h-20.7V198.2z M156.8,239.6h20.7v20.7h-20.7V239.6z M208.6,239.6h20.7v20.7h-20.7V239.6z M270.7,239.6h20.7v20.7 h-20.7V239.6z M322.5,239.6h20.7v20.7h-20.7V239.6z M156.8,281.1h20.7v20.7h-20.7V281.1z M208.6,281.1h20.7v20.7h-20.7V281.1z M270.7,281.1h20.7v20.7h-20.7V281.1z M322.5,281.1h20.7v20.7h-20.7V281.1z M156.8,322.5h20.7v20.7h-20.7V322.5z M208.6,322.5 h20.7v20.7h-20.7V322.5z M270.7,322.5h20.7v20.7h-20.7V322.5z M322.5,322.5h20.7v20.7h-20.7V322.5z"></path> </g> </g> <g class="st1"> <g id="Layer_1-2_00000026152607974932659550000006496382689393760920_"> <path class="st2" d="M250,123c-70.1,0-127.1,57-127.1,127.1c0,20.2,4.9,40.3,14.2,58.2l-13.6,48.6c-1.5,5.5,0,11.5,4.1,15.5 c3,3,7.1,4.6,11.3,4.6c1.4,0,2.9-0.2,4.3-0.6l48.7-13.6c18,9.3,38,14.2,58.2,14.2c70.1,0,127.1-57,127.1-127.1S320,123,250,123z M240.5,189.7c0-5.3,4.3-9.5,9.5-9.5s9.5,4.3,9.5,9.5v76.2c0,5.3-4.3,9.5-9.5,9.5s-9.5-4.3-9.5-9.5V189.7z M250,319.9 c-7,0-12.7-5.7-12.7-12.7s5.7-12.7,12.7-12.7s12.7,5.7,12.7,12.7S257,319.9,250,319.9z"></path> </g> </g> <g class="st1"> <g id="Layer_1-2_00000058581034199400457870000000500213819562285715_"> <g> <g> <path class="st3" d="M244.3,257.8v11.4c2,0,3.7-0.3,5.7-0.3s3.7,0,5.7,0.3v-11.4c11.1,0.6,21.6,2.9,31.2,6.5l-4.3,10.2 c3.7,1.4,7.1,2.9,10.5,4.5l4.3-10.5c5.4,2.6,10.2,5.7,15.1,9.1l12.2-12.2c-20.7-15.6-46.5-25-74.6-25 c-68.9,0-124.8,55.9-124.8,124.8v11.4h17v-11.4c0-11.6,2-23,5.4-33.5l10.5,4.3c1.1-3.7,2.6-7.1,4-10.5l-10.5-4.3 c4.3-9.6,10.2-18.7,17-26.4l7.9,7.9c2.6-2.9,5.1-5.7,7.9-8.2l-7.9-7.9c7.7-7.1,16.5-13.3,26.1-18.1l4.3,10.5 c3.4-1.7,6.8-3.1,10.5-4.5l-4.3-10.5C222.7,260.4,233.3,258.5,244.3,257.8L244.3,257.8L244.3,257.8z"></path> <path class="st3" d="M352.4,293.8L340.2,306c3.1,4.8,5.9,9.9,8.2,15.1l-10.5,4.5c1.4,3.4,2.9,7.1,4,10.5l10.5-4.3 c3.4,10.5,5.4,21.8,5.4,33.5v11.4h17v-11.4C374.8,338.7,366.5,314.3,352.4,293.8C352.4,293.8,352.4,293.8,352.4,293.8z"></path> <path class="st3" d="M242.1,360.2c-0.6,0.3-0.8,0.8-1.4,1.4c-4,4.8-3.4,11.9,1.4,16.2c4.8,4,11.9,3.4,16.2-1.4l88.2-104.7 L242.1,360.2L242.1,360.2L242.1,360.2z"></path> </g> <polygon class="st3" points="239.6,219.3 253,174.2 232.3,174.2 242.6,119.6 273.3,119.6 260.3,159.5 281.1,159.5 239.6,219.3 239.6,219.3 "></polygon> </g> </g> </g> </g> <g> <g id="Layer_1-2_00000066512432987319897020000012384104146895961991_"> <g> <path class="st3" d="M206.5,346.4c-9.5,0-17-7.5-17-17s7.5-17,17-17c9.5,0,17,7.5,17,17S215.7,346.4,206.5,346.4 C206.5,346.4,206.5,346.4,206.5,346.4z M206.5,280.3c-27.1,0-49.2,22-49.2,49.2s22,49.2,49.2,49.2s49.2-22,49.2-49.2 S233.7,280.3,206.5,280.3L206.5,280.3z"></path> <polygon class="st3" points="268.3,318.3 234.5,236.9 337.9,194.1 371.7,275.5 268.3,318.3 "></polygon> <path class="st3" d="M210.6,267.1c8.8,0.7,17.3,3,24.7,7.1l-61.7-151.9c0-0.3-0.3-0.7-0.3-1l-19,7.8c0,0.3,0.3,0.7,0.3,1 l7.8,19.3L134.6,161c-5.1,2.1-7.8,8.1-5.4,13.2c1.7,4.1,5.4,6.5,9.5,6.5c1.4,0,2.7-0.3,3.7-0.7l27.8-11.5L210.6,267.1 L210.6,267.1L210.6,267.1z"></path> <path class="st3" d="M342.1,303.7c-1.4,0-2.7,0.3-4.1,0.7l-68.8,28.5c-0.7,8.8-2.7,17.3-6.8,24.7v0.3l82.7-34.6 c4.1-1.4,7.1-5.1,7.1-9.5C352.3,308.4,347.5,303.7,342.1,303.7L342.1,303.7L342.1,303.7z"></path> </g> </g> </g> <g class="st0"> <g id="Layer_1-2_00000092455512061992830190000010479159765656947617_" class="st1"> <g> <polygon class="st3" points="346.4,237.3 346.4,192.7 324.9,192.7 324.9,217.1 281.9,176.7 281.9,176.7 169,283 181.1,293.1 281.9,198.5 281.9,198.5 382.6,293.1 394.8,283 346.4,237.3 "></polygon> <path class="st3" d="M201.2,289v78.9h64.5v-66.4H298v66.4h64.5V289l-80.6-75.7L201.2,289C201.2,289,201.2,289,201.2,289z M249.6,333.4h-32.3v-31.9h32.3V333.4L249.6,333.4z M314.1,301.5h32.3v31.9h-32.3V301.5L314.1,301.5z"></path> <polygon class="st3" points="113.3,132.1 105.2,132.1 105.2,221.9 196.2,221.9 196.2,214 113.3,214 113.3,132.1 "></polygon> <polygon class="st3" points="121.3,159.8 136,159.8 136,206.1 121.3,206.1 121.3,159.8 "></polygon> <polygon class="st3" points="141.3,132.1 156.1,132.1 156.1,206.1 141.3,206.1 141.3,132.1 "></polygon> <polygon class="st3" points="161.4,159.8 176.1,159.8 176.1,206.1 161.4,206.1 161.4,159.8 "></polygon> <polygon class="st3" points="181.4,182.3 196.2,182.3 196.2,206.1 181.4,206.1 181.4,182.3 "></polygon> </g> </g> </g> <g class="st0"> <g id="Layer_1-2_00000088828884551599355310000003046922990792482699_" class="st1"> <path class="st2" d="M250,120.2l-149.5,83.7h42.4v175.9h214.2V203.9h42.4L250,120.2z M251.3,346.3c0,0-111.2-85.9-54.3-125 c31.2-21.4,54.1,20.2,54.1,20.2s23.8-38.5,51.4-20.2C360,259.4,251.3,346.3,251.3,346.3z"></path> </g> </g> <g class="st0"> <g id="Layer_1-2_00000087391161733851824180000015318525111373149354_" class="st1"> <path class="st2" d="M345,180.3l-19.8-5.3l-5.3-19.7l25.1-25c-15.1-5.6-31.7-2.5-43.8,8.3c-11.7,10.8-16.7,27.3-12.2,42.5 L180.9,288.9c-15.3-4.2-31.7,0.8-42.4,12.5c-10.6,11.7-13.9,28.3-8.4,43.3l25.1-25l19.5,5.3l5.3,19.7l-25.1,25 c15.1,5.6,31.7,2.5,43.8-8.3c11.7-10.8,16.7-27.3,12.2-42.5l108.1-107.8c15.3,4.2,31.7-0.8,42.4-12.5 c10.6-11.7,13.9-28.3,8.4-43.3L345,180.3C345,180.3,345,180.3,345,180.3z"></path> </g> </g> <g class="st0"> <g id="Layer_1-2_00000150794100436766037130000006937500263789924286_" class="st1"> <path class="st2" d="M358.9,139.7H141.1c-6.6,0-12.1,5.5-12.1,12.1v147c0,6.6,5.3,12.1,11.9,12.1c0,0,0.1,0,0.2,0h133.1 l48.4,49.5v-49.1h36.3c6.6,0,12-5.5,12.1-12.1v-147C371.1,145.4,365.7,139.8,358.9,139.7L358.9,139.7z M250,271.3 c0,0-46.9-35.9-46.9-64.9c0-19.4,29.5-40.1,46.9-5.5c17.4-34.5,46.9-13.8,46.9,5.5C296.9,235.4,250,271.3,250,271.3L250,271.3z"></path> </g> </g> <g class="st0"> <g id="Layer_1-2_00000175293974989470704180000010632051633256854965_" class="st1"> <g> <path class="st2" d="M346.6,185.4l-13.8,13.8c28.7,28.7,28.7,75.6,0,104.4l13.8,13.8C382.8,280.9,383.1,222,346.6,185.4 L346.6,185.4z"></path> <path class="st2" d="M305.4,276.3l13.8,13.8c20.9-20.6,21.3-54.7,0.7-75.6c-0.4-0.4-0.7-0.7-0.7-0.7l-13.8,13.8 C318.9,241.1,318.9,262.8,305.4,276.3L305.4,276.3L305.4,276.3z"></path> <polygon class="st2" points="126.1,202.4 126.1,297.6 195,297.6 284.1,370.7 284.1,129.3 195,202.4 126.1,202.4 "></polygon> </g> </g> </g> <g class="st0"> <g id="Layer_1-2_00000101086729547966839670000015996559317746665658_" class="st1"> <g> <path class="st2" d="M380.5,204.4c-8.9-7.7-20.8-11.1-32.8-8.9v-0.8c0-16.2-7.7-31.5-20.8-41.3c-13.2-9.8-30.2-12.3-46-7.2 c-13.2-24.7-41.7-37-68.9-30.6s-46.8,30.6-47.2,58.7c-18.3-3-37,4.3-48.5,19.2c-11.5,14.9-14,34.4-6.4,51.4 c7.2,17,23.4,28.9,42.1,30.6h204.2c16.6-0.8,30.6-11.9,36.2-27.2C397.5,232.5,392.9,215.1,380.5,204.4L380.5,204.4L380.5,204.4z "></path> <path class="st2" d="M289.8,315.9c-2.6-4.3-7.7-5.5-11.5-3l-20.4,11.5V301c0-4.7-3.8-8.5-8.5-8.5s-8.5,3.8-8.5,8.5v23.4 l-20.4-11.9c-2.6-1.7-5.9-1.7-8.5-0.4c-2.6,1.7-4.3,4.3-4.3,7.7c0,3,1.7,5.9,4.7,7.2l20,12.3L212,351.2c-3,1.3-4.7,4.3-4.7,7.2 c0,3,1.7,5.9,4.3,7.7c2.6,1.7,5.9,1.3,8.5-0.4l20.4-11.9v23.8c0,4.7,3.8,8.5,8.5,8.5s8.5-3.8,8.5-8.5v-23.4l20.4,11.9 c2.6,1.7,5.9,1.7,8.5,0.4c2.6-1.7,4.3-4.3,4.3-7.7c0-3-1.7-5.9-4.7-7.2l-19.6-12.3l20.4-11.9 C290.7,325.2,292.4,320.1,289.8,315.9L289.8,315.9z"></path> <path class="st2" d="M371.6,308.7c-1.7-3-5.5-3.8-8.5-2.2l-8.9,5.1V301c0-3.4-3-6.4-6.4-6.4s-6.4,3-6.4,6.4v10.2l-8.9-5.1 c-3-1.7-6.8-0.8-8.9,2.2c-1.7,3-0.8,6.8,2.2,8.9l8.9,5.1l-8.5,5.1c-2.2,1.3-3.4,3.4-3.4,5.5c0,2.1,1.3,4.3,3.4,5.5 c2.2,1.3,4.3,1.3,6.4,0l8.9-5.1v10.2c0,3.4,3,6.4,6.4,6.4c3.4,0,6.4-3,6.4-6.4v-10.2l8.9,5.1c3,1.7,6.8,0.8,8.5-2.6 s0.8-6.8-2.2-8.5l-8.9-5.1l8.9-5.1c1.3-0.8,2.6-2.2,3-3.8C372.9,311.6,372.4,309.9,371.6,308.7L371.6,308.7L371.6,308.7z"></path> <path class="st2" d="M177.1,308.7c-1.7-3-5.5-3.8-8.5-2.2l-8.9,5.1V301c0-3.4-3-6.4-6.4-6.4c-3.4,0-6.4,3-6.4,6.4v10.2l-8.9-5.1 c-3-1.7-6.8-0.8-8.5,2.2c-1.7,3-0.8,6.8,2.2,8.5l8.5,5.1l-8.9,5.1c-2.2,1.3-3.4,3.4-3.4,5.5c0,2.1,1.3,4.3,3.4,5.5 c2.2,1.3,4.3,1.3,6.4,0l8.9-5.1v10.7c0,3.4,3,6.4,6.4,6.4c3.4,0,6.4-3,6.4-6.4v-10.2l8.9,5.1c2.2,1.3,4.3,1.3,6.4,0 c2.2-1.3,3.4-3.4,3.4-5.5c0-2.1-1.3-4.3-3.4-5.5l-8.9-5.1l8.9-5.1c1.7-0.8,2.6-2.2,3-3.8S178.1,309.9,177.1,308.7L177.1,308.7 L177.1,308.7z"></path> </g> </g> </g> <g class="st0"> <g id="Layer_1-2_00000179625792443035552550000000596753239897068194_" class="st1"> <g> <path class="st2" d="M278,288.6c-0.3,0-0.6,0-0.8,0.1c-0.3,0-0.6-0.1-0.9-0.1H159c-5.8,0-10.5,4.7-10.5,10.5 c0,5.8,4.7,10.5,10.5,10.5h117.2c0.3,0,0.6,0,0.8-0.1c0.3,0,0.6,0.1,0.9,0.1c5.8,0,10.5,4.7,10.5,10.5s-4.7,10.5-10.5,10.5 c-3.8,0-7.3-2.1-9.2-5.4c-2.7-5.1-9.1-7.1-14.2-4.3c-5.1,2.7-7.1,9.1-4.3,14.2c0,0.1,0.1,0.2,0.2,0.3 c8.4,15.2,27.6,20.8,42.8,12.3c15.2-8.5,20.7-27.7,12.2-42.9C299.9,294.7,289.4,288.5,278,288.6L278,288.6L278,288.6z"></path> <path class="st2" d="M141.5,225.5h97.9c21.3,0,38.5-17.2,38.5-38.6c0-21.3-17.2-38.6-38.5-38.6c-19.4,0-35.7,14.4-38.1,33.6 c-0.7,5.7,3.3,11,9.1,11.8c5.8,0.7,11-3.3,11.7-9.1c1.3-9.6,10.1-16.4,19.6-15.1c9.6,1.3,16.3,10.1,15.1,19.6 c-1.1,8.7-8.6,15.2-17.3,15.2h-97.9c-5.8,0-10.5,4.7-10.5,10.5S135.7,225.5,141.5,225.5L141.5,225.5z"></path> <path class="st2" d="M344.5,162.4c-29,0-52.5,23.6-52.5,52.7c0,4.4,0.6,8.8,1.6,13c1.4,5.6,7.2,9,12.8,7.6 c5.6-1.4,9-7.2,7.6-12.8c-4.3-16.9,5.8-34.1,22.6-38.4s34,5.8,38.3,22.7c4.3,16.9-5.8,34.1-22.6,38.4c-2.6,0.7-5.2,1-7.9,1 H113.6c-5.8,0-10.5,4.7-10.5,10.5c0,5.8,4.7,10.5,10.5,10.5h230.9c29,0,52.5-23.6,52.5-52.6S373.4,162.4,344.5,162.4 L344.5,162.4z"></path> </g> </g> </g> <g class="st0"> <g id="Layer_1-2_00000083081604991263485160000006701441237921223613_" class="st1"> <path class="st2" d="M379,137.8H121.1c-7.9,0-14.3,6.5-14.3,14.5l0,0v174.2c0,7.9,6.4,14.4,14.3,14.5h157.6l57.3,58v-58h43 c7.9,0,14.4-6.5,14.3-14.5l0,0V152.3C393.2,144.3,386.9,137.8,379,137.8L379,137.8L379,137.8z M292.5,297.9L250,268.5l-42.5,29.4 l14.7-49l-37.6-32.7h49l16.3-49l16.3,49h49l-37.6,32.7L292.5,297.9C292.5,297.9,292.5,297.9,292.5,297.9z"></path> </g> </g> <g class="st0"> <g id="Layer_1-2_00000181790115041913964220000001910571291510737793_" class="st1"> <path class="st2" d="M260.6,104.3c26.6,29.2,63.4,47.2,102.8,50.4c7.3,0.7,12.9,6.9,12.8,14.2v35.9c0,78-49.6,149.3-118.5,193.5 c-4.8,3-10.8,3-15.5,0c-68.8-44.1-118.4-115.5-118.4-193.5v-35.9c0-7.4,5.5-13.5,12.8-14.2c39.4-3.2,76.2-21.1,102.8-50.4 c5-5.8,13.8-6.5,19.6-1.4C259.6,103.3,260.1,103.8,260.6,104.3L260.6,104.3L260.6,104.3z"></path> </g> </g> <g class="st0"> <g id="Layer_1-2_00000066506932988077554810000018192916710070650770_" class="st1"> <path class="st2" d="M411.2,251.9c-2,0-3.6-1.2-4.8-2.4c-2-2-3.2-5.7-3.2-9.3c0-5.2,3.6-9.3,6.9-11.7l0.4-0.4 c7.6,4,8.8,8.1,8.8,11.7C419.3,246.3,415.7,251.9,411.2,251.9L411.2,251.9L411.2,251.9z M301.8,172.6c-1.2,2.8-4.4,4.8-7.2,4.8 c-1.2,0-2.4-0.4-3.2-0.8c-12.9-6.1-26.9-9.3-40.2-9.3c-7.6,0-15.3,1.2-22.9,3.2c-4.4,1.2-8.8-1.2-10-5.7 c-1.2-4.4,1.2-8.8,5.7-10.1c8.8-2.4,18.1-3.6,26.9-3.6c15.3,0,31.8,3.6,46.7,10.5c4.4,2,6.4,6.9,4.4,10.9l0,0H301.8z M440.5,203.6c-10-1.6-22.5,1.2-32.6,6.9c-9.3-2-23.3-2-36.2,2.4c-18.9-45.2-71.6-77.7-121.4-77.7c-17.3,0-34.6,4-50.3,11.3 L150.6,123c-3.2-1.6-6.9,1.6-5.7,4.8l16.1,45.5c-9.6,10.1-17.7,21.8-23.3,34.6c-0.8,2.4-2.8,4-5.7,4.8l-14.5,3.6 c-7.2,1.6-12.1,8.1-12.1,15.7v31.4c0,7.3,4.8,13.7,12.1,15.7l14.9,3.6c2.4,0.8,4.4,2.4,5.7,4.8c6.9,15.7,17.3,29.8,30.1,41.5 c1.2,1.2,2.4,2.8,2.8,4.8l6,36.7c0.8,4,4,6.9,8.1,6.9h26.5c4,0,7.2-2.8,8.1-6.9l2-12.9c9.3,2.4,18.9,3.6,28.9,3.6 c10.9,0,22.1-1.6,32.6-4.4l2.4,13.7c0.8,4,4,6.9,8.1,6.9h26.5c4,0,7.2-2.8,8.1-6.9l6-36.7c0.4-2,1.2-3.6,2.8-4.8 c24.5-21.3,41.8-49.5,41.8-81.4c0-6.9-0.8-13.3-2.4-19.7c4.8-1.6,10-2.8,14.9-2.8c-2.8,4.4-4.4,9.3-4.4,14.5 c-0.4,8.1,2.8,15.7,8.1,21.3c4.4,4.4,10,7.3,16.1,7.3c13.3,0,24.1-12.5,24.1-28.2c0-7.6-2.8-14.5-8.4-19.7 c4-0.8,7.6-1.2,11.2-0.8c4.4,0.8,8.4-2.4,9.3-6.9c0.4-4.4-2.4-8.5-6.9-9.3l0,0L440.5,203.6z"></path> </g> </g> <g class="st0"> <g id="Layer_1-2_00000091010789350297202180000012809404633782012829_" class="st1"> <path class="st2" d="M240.7,145c-57.9,0-104.6,46.8-104.6,104.8c0,18.3,4.8,35.5,13.1,50.5c7.8-8.2,16.4-16.5,25.8-25.5 c23.5-22.1,51.2-44.5,74.3-61c1.5-1.1,3-1.8,4.8-1.8c4.1,0,7.5,3.3,7.5,7.5c0,2.6-1.1,4.5-3,6l0,0c-33.2,24-77.3,61-107.2,94.7 c0,0-4.1,4.5-6,6.7l0,0c-16.8,19.8-28,37.8-28,50.5h22.4c0-8.2,13.1-26.2,32.8-47.5c18.3,15.7,41.8,25.1,68,25.1 c18.7,0,36.6-4.8,51.9-13.8l0,0c79.9-44.6,90-126.5,90-218.6C382.6,122.6,295.6,146.5,240.7,145C240.7,145,240.7,145,240.7,145z"></path> </g> </g> <g class="st0"> <g id="Layer_1-2_00000066493725629373155360000016844007351977040038_" class="st1"> <g> <path class="st2" d="M290.8,378.6c0,18.4-14.6,33-33,33s-33-14.6-33-33c0-18.4,33-66,33-66S290.8,360.7,290.8,378.6L290.8,378.6 z"></path> <path class="st2" d="M361.5,359.8c0,13.2-10.4,23.6-23.6,23.6c-13.2,0-23.6-10.4-23.6-23.6s23.6-47.1,23.6-47.1 S361.5,347.1,361.5,359.8L361.5,359.8z"></path> <path class="st2" d="M201.2,359.8c0,13.2-10.4,23.6-23.6,23.6c-13.2,0-23.6-10.4-23.6-23.6s23.6-47.1,23.6-47.1 S201.2,347.1,201.2,359.8L201.2,359.8z"></path> <path class="st2" d="M418,249c0-13.2-5.6-25.4-15.5-34c-9.9-8.5-23.1-12.2-36.3-9.9v-0.5c0-17.9-8.5-35.3-23.6-45.7 c-14.6-10.9-33.5-13.7-50.9-8c-14.6-27.3-46.2-41.5-76.4-33.9c-30.2,7.1-51.8,34-52.3,65c-20.8-3.8-41.9,4.3-54.7,20.8 c-13.2,16.5-16,38.7-7.5,58c8.5,19.3,26.9,32,48.1,33.5h226.3C399.7,292.8,418.1,273,418,249L418,249L418,249z"></path> </g> </g> </g> <g class="st0"> <g id="Layer_1-2_00000021813933996753275490000001982942050843487633_" class="st1"> <g> <path class="st2" d="M261.9,232.2h83.2c6.8,0,11.9-5.2,11.9-11.9s-5.2-11.9-11.9-11.9H162.8c-6.8,0-11.9,5.2-11.9,11.9 s5.2,11.9,11.9,11.9h75.3v99h-23.8V355h71.3v-23.8h-23.8L261.9,232.2L261.9,232.2L261.9,232.2z"></path> <path class="st2" d="M198.9,263.9H126l-10.7-108.2l0,0c-0.8-5.9-5.6-10.7-11.9-10.7c-6.7,0-11.9,5.2-11.9,11.9v1.2l0,0 l11.9,117.3L91.9,355H116l4-27.7h54.7V355h23.8v-67.4h0.4c6.8,0,11.9-5.2,11.9-11.9S205.2,263.9,198.9,263.9L198.9,263.9 L198.9,263.9z M174.7,311.4H122l3.5-23.8h49.1L174.7,311.4L174.7,311.4L174.7,311.4z"></path> <path class="st2" d="M408.5,158.1v-1.2c0-6.8-5.2-11.9-11.9-11.9c-5.9,0-11.1,4.7-11.9,10.7l0,0L374,263.9h-72.9 c-6.8,0-11.9,5.2-11.9,11.9c0,6.7,5.2,11.9,11.9,11.9h0.4V355h23.8v-27.7h54.7l4,27.7h24.1l-11.5-79.6L408.5,158.1L408.5,158.1 L408.5,158.1z M325.3,311.4v-23.8h49.1l3.5,23.8H325.3L325.3,311.4z"></path> </g> </g> </g> <g class="st0"> <g id="Layer_1-2_00000018918393369278945160000012922434145107908020_" class="st1"> <g> <path class="st2" d="M421.7,250c0-8.6-7-15.7-15.6-15.7c-3.1,0-5.9,0.8-8.2,2.3l-66.8,38.3c0.8,4.3,0.8,8.6,0,13.3 c-3.1,14.4-16.8,24.2-31.6,24.2h-69.1v-15.7h70.2c8.6,0,15.6-7,15.6-15.7s-7-15.7-15.6-15.7H207c-6.6,0-12.9,1.9-18.3,5.1 L78.3,324.3l54.6,54.7c25.4-25.4,58.2-35.2,93.7-35.2h73c3.5,0,6.6-1.2,9.4-3.2L416.2,262C419.3,258.9,421.7,254.6,421.7,250 L421.7,250L421.7,250z"></path> <path class="st2" d="M367.5,121.7c0,0-48.4-6.3-74.2,19.5c-18.7,18.8-20.7,48.9-20.3,64.5c-8.2,5.9-15.2,14.4-19.9,24.6 c-1.2-1.5-1.9-3.2-3.1-4.7c0.4-12.9-1.5-37.5-16.8-52.8c-21.5-21.5-61.3-16.1-61.3-16.1s-5.1,39.9,16,61.4 c13.7,13.7,35.5,16.4,48.8,16.8c3.9,4.3,6.6,10.6,8.6,16.1c0.4,1.2,0.8,3.9,0.8,7.4h16c0.4-8.2,1.5-12.9,4.7-19.5 c3.9-9.4,10.5-17.2,18.3-21.9c16,0.4,44.9-2.3,62.8-20.3C373.7,170.2,367.5,121.7,367.5,121.7L367.5,121.7z"></path> </g> </g> </g> </g> <g id="Layer_2"> <circle class="st4" cx="250" cy="250" r="250"></circle> </g> </svg> 