<?xml version="1.0" encoding="UTF-8"?>
<svg id="Layer_2" data-name="Layer 2" xmlns="http://www.w3.org/2000/svg" viewBox="0 0 1105.74 631.17">
  <defs>
    <style>
      .cls-1 {
        fill: #f5f5f5;
      }
    </style>
  </defs>
  <g id="Layer_5" data-name="Layer 5">
    <g id="Layer_6" data-name="Layer 6">
      <path class="cls-1" d="m194.12,482.27c.38,1.91.77,3.63,1.15,5.36h.19c-.57-1.72-.96-3.63-1.34-5.36Z"/>
      <path class="cls-1" d="m318.17,619.77c-29.44-8.64-54.97-24.22-76.62-46.85-22.95-23.91-38.25-52.4-46.09-85.29-.57-1.73-.95-3.64-1.34-5.36-.19-.19-.19-.38-.19-.57-1.14-6.12-2.1-12.43-3.06-18.94-.76-6.88-1.53-13.96-1.91-21.22v-.58c-.19-3.63-.19-7.26-.19-10.9v-232.4c48.07-.5,32.41-.36,105.17,0-.56-2.89-6.93-4.28-104.56-4.28-32.79,0-64.91-23.55-71.25-46.08l156.98,4.89c.03-1.77-20-5.79-156.2-9.31-29.8-.77-53.64-36.47-53.64-48.63l163.06,6.83c.49-3.17-20.13-5.3-160.67-10.92C34.8,88.84-.63,24.24,0,20.81h176.9c5.55,0,10.9.19,16.26.76h.19c69.99,5.55,130.04,46.09,162.36,104.23,13.01,22.95,21.61,48.57,24.67,75.92h.77v146.68c0,20.85,1.72,34.81,4.97,41.31,3.44,6.69,10.14,10.14,20.27,10.14,12.12,0,32.31-7.37,45.46-20.96-6.46,120.64-54.17,207.17-133.69,240.88Z"/>
      <path class="cls-1" d="m592.01,601.82c-6.48-4.22-12.7-8.95-18.66-14.18,0-2.67,0-4.01-.19-4.59l6.51-5.54-8.99-7.27v-2.1s43.98,1.91,50.48-17.21c0,0,6.32-15.11,0-26.97-6.5-11.66-19.69-12.43-19.69-12.43l-15.49-.19v-2.49s3.63-.95,4.01-4.59c.39-3.82-4.2-3.06-4.2-3.06-.39,0-2.68-.19-2.87-5.93-.19-5.92,0-10.51,0-10.51,0,0-3.25-.96-3.06-3.64,0-2.48,3.06-1.34,1.53-6.12-1.53-4.78-4.59-5.93-4.59-5.93v-7.45s17.78-4.59,16.83-13.39c-1.15-8.61-12.05-12.05-12.05-12.05l.19-6.88s-8.03-2.49-12.81-5.55c-4.59-3.25-3.45-9.37-3.45-9.37,0,0-4.59-14.53-25.05-15.68.19-5.36,7.46-7.65,8.42-14.15-.2,0,.19-12.62-16.64-20.47-16.83,7.85-16.45,20.47-16.64,20.47.96,6.5,8.22,8.79,8.41,14.15-20.46,1.15-25.05,15.68-25.05,15.68,0,0,1.15,6.12-3.44,9.37-4.78,3.06-13,5.55-13,5.55l.19,6.88s-10.71,3.44-11.86,12.05c-.96,8.8,16.83,13.39,16.83,13.39v7.45s-3.25,1.15-4.78,5.93c-1.34,4.78,1.53,3.64,1.72,6.12.19,2.68-3.06,3.64-3.06,3.64,0,0,.19,4.59,0,10.51-.19,5.74-2.49,5.93-2.87,5.93,0,0-4.59-.76-4.21,3.06.39,3.64,4.02,4.59,4.02,4.59v2.49l-15.49.19s-13.2.77-19.7,12.43c-6.31,11.86,0,26.97,0,26.97,6.5,19.12,50.49,17.21,50.49,17.21v2.1l-8.99,7.27,6.5,5.54c-.19.39-.19.96,0,1.92-9.56,8.79-19.5,16.25-29.64,21.99-21.42,11.86-47.24,18.93-77.26,20.46-1.34,0-2.49.19-3.83.19-1.91.2-3.82.2-5.73.2-.77.19-1.53,0-2.3,0-12.45-.27-24.37-1.46-35.76-3.59,35.37-18.56,64.97-48.23,86.39-86.86,27.26-49.17,41.2-111.39,41.44-185.03.01-.02.01-.05,0-.08.07-.95.11-1.91.11-2.89v-13.01c0-36.33,29.45-65.59,65.79-65.4l10.13.19c35.77.19,64.45,29.45,64.07,65.21v13.39c2.29,31.17,26.96,53.36,49.15,50.11,5.48-.78,10.84-3.38,15.39-8.09.33,55.68-9.2,106.84-27.66,146.88-13.1,28.41-30.05,49.83-49.59,63.18Z"/>
      <path class="cls-1" d="m682.74,214.15v413.85c-29.69-.4-56.13-6.93-79.44-19.48,19.4-14.66,36.16-36.57,49.2-64.85,21.79-47.27,31.62-109.18,28.05-175.67,1.17-5.68,1.81-12.19,1.81-19.6v-122.77c0-.74,0-1.49.01-2.23,0-1.71.02-3.42.09-5.12.06-1.38.14-2.75.28-4.13Z"/>
      <path class="cls-1" d="m194.12,482.27c.38,1.72.77,3.63,1.34,5.36h-.19c-.38-1.72-.76-3.44-1.15-5.36Z"/>
      <path class="cls-1" d="m1100.52,32.06c-14.27,13.61-47.43,22.57-86.69,38.29-45.44,18.19-118.28,52.94-132.01,130.47-1.27,6.48-1.96,13.17-1.88,20.25l-3.23,209.38c-.92,60.22-19.69,108.74-56.32,146.17-36.62,37.23-83.53,55.4-140.73,54.52l-3.53-.05c-43.38-2.06-66.42-16.32-73.93-21.76-1.81-1.31-2.72-2.11-2.8-2.11.2-.17.41-.35.61-.52,1.09.62,2.18,1.23,3.29,1.82,19.4-14.66,36.16-36.57,49.2-64.85,21.79-47.27,31.62-109.18,28.05-175.67-.24,1.22-.52,2.4-.81,3.55l.23-12.95,2.4-135.2.09-5.12.23-13.04c.26-3.93.51-7.86,1.16-11.59,13.17-105.1,109-177.42,217.13-175.75l204.61,3.21h0c.72,3.96-1.25,7.3-5.07,10.95Z"/>
      <path class="cls-1" d="m685.48,56.79c-2.63,45.76-3.24,103.04-3.2,158.38l.35,9.13c18.06-147.55,73.27-115.33,123.33-107.57,9,1.78,40.33,14.78,89.49,31.88,31.21,11.44,94.35,29.66,106.9,16.09L801.24,27.21C762.26-1.08,732.22-1.21,715.53.68c-22.9,4.36-26.07,8.14-30.05,56.11Z"/>
    </g>
  </g>
</svg>