<?xml version="1.0" encoding="UTF-8"?>
<svg id="Layer_2" data-name="Layer 2" xmlns="http://www.w3.org/2000/svg" viewBox="0 0 945.62 119.36">
  <defs>
    <style>
      .cls-1 {
        fill: #f1c824;
      }

      .cls-2 {
        fill: #0b5ca6;
      }
    </style>
  </defs>
  <g id="Layer_5" data-name="Layer 5">
    <g id="Layer_6" data-name="Layer 6">
      <g>
        <path class="cls-2" d="m52.15,82.94c-3.08,6.16-6.87,11.57-11.37,16.25-4.5,4.68-10,8.32-16.5,10.94-5.13-3.53-9.26-7.87-12.4-13-3.14-5.13-5.59-10.63-7.35-16.5-1.77-5.87-2.97-11.91-3.59-18.13-.63-6.21-.94-12.23-.94-18.04v-18.13c0-3.53.68-6.9,2.05-10.09,1.37-3.19,3.25-5.99,5.64-8.38,2.39-2.39,5.16-4.3,8.29-5.73,3.13-1.42,6.52-2.14,10.17-2.14h8.55v26.51c0,1.71-.06,4.36-.17,7.95-.12,3.59-.09,7.58.09,11.97.17,4.39.51,8.89,1.03,13.51s1.42,8.75,2.74,12.4c1.31,3.65,3.08,6.5,5.3,8.55,2.22,2.05,5.04,2.74,8.46,2.05Zm64.98.17c-3.08,6.27-6.87,11.71-11.37,16.33-4.5,4.62-10,8.24-16.5,10.86-1.26-.91-2.45-1.94-3.59-3.08-1.14-1.14-2.28-2.28-3.42-3.42-1.71,2.28-3.82,4.36-6.33,6.24-2.51,1.88-5.22,3.51-8.12,4.87-2.91,1.37-5.93,2.42-9.06,3.16-3.14.74-6.07,1.11-8.81,1.11-3.99,0-7.72-.54-11.2-1.62-3.48-1.08-6.93-2.59-10.35-4.53,4.56-2.16,8.55-4.7,11.97-7.61s6.41-6.13,8.98-9.66c2.56-3.53,4.84-7.35,6.84-11.46,1.99-4.1,3.85-8.44,5.56-13,1.94-5.01,2.99-10.29,3.16-15.82.17-5.53.2-10.92.09-16.16-.12-5.24,0-10.26.34-15.05.34-4.79,1.6-8.98,3.76-12.57,2.16-3.59,5.61-6.41,10.35-8.46,4.73-2.05,11.48-3.08,20.26-3.08,0,1.94-.11,5.42-.34,10.43-.23,5.02-.37,10.75-.43,17.19-.06,6.44.11,13.08.51,19.92.4,6.84,1.25,13.03,2.56,18.55,1.31,5.53,3.16,9.92,5.56,13.17,2.39,3.25,5.58,4.48,9.58,3.68ZM156.29.17h8.55v44.46c0,5.25-.32,10.72-.94,16.42-.63,5.7-1.71,11.32-3.25,16.84-1.54,5.53-3.56,10.77-6.07,15.73-2.51,4.96-5.62,9.35-9.32,13.17-3.71,3.82-8.07,6.84-13.08,9.06-5.02,2.22-10.77,3.33-17.27,3.33-7.64,0-14.76-1.99-21.38-5.99,4.45-2.05,8.38-4.59,11.8-7.61,3.42-3.02,6.47-6.33,9.15-9.92,2.68-3.59,5.02-7.5,7.01-11.71,1.99-4.22,3.79-8.55,5.39-13,1.25-3.76,1.99-8.12,2.22-13.08.23-4.96.4-10.06.51-15.3.11-5.24.4-10.4.85-15.48.45-5.07,1.54-9.6,3.25-13.59,1.71-3.99,4.33-7.21,7.87-9.66,3.53-2.45,8.44-3.68,14.71-3.68Z"/>
        <path class="cls-2" d="m259.75,0v34.71h-60.7c-3.65,0-7.04-.68-10.17-2.05-3.14-1.37-5.87-3.25-8.21-5.64-2.34-2.39-4.19-5.19-5.56-8.38-1.37-3.19-2.05-6.55-2.05-10.09V0h86.7Zm-37.45,119.19h-23.26c-3.65,0-7.04-.68-10.17-2.05-3.14-1.37-5.87-3.22-8.21-5.56-2.34-2.33-4.19-5.07-5.56-8.21-1.37-3.13-2.05-6.52-2.05-10.17V24.28c2.28,3.76,4.62,6.67,7.01,8.72,2.39,2.05,4.96,3.5,7.69,4.36,2.74.86,5.76,1.34,9.06,1.45,3.31.12,6.95.17,10.94.17v55.23c0,5.93,1.17,10.83,3.51,14.71,2.34,3.88,6.01,7.3,11.03,10.26Zm37.45-75.41v31.64h-47.71v-31.64h47.71Zm0,75.41h-22.57c-3.31,0-6.47-.68-9.49-2.05-3.02-1.37-5.7-3.22-8.04-5.56-2.34-2.33-4.19-5.02-5.56-8.04-1.37-3.02-2.05-6.18-2.05-9.49v-9.58h47.71v34.71Z"/>
        <path class="cls-2" d="m268.3,62.42V25.99c0-3.53.68-6.9,2.05-10.09,1.37-3.19,3.22-5.96,5.56-8.29,2.34-2.33,5.07-4.19,8.21-5.56,3.13-1.37,6.52-2.05,10.17-2.05h47.71c3.53,0,6.9.68,10.09,2.05,3.19,1.37,5.98,3.22,8.38,5.56,2.39,2.34,4.27,5.1,5.64,8.29,1.37,3.19,2.05,6.56,2.05,10.09v13h-34.71v-4.28h-30.44v9.06h51.98c8.78,0,13.17,4.39,13.17,13.17v36.25c0,5.36-1,9.72-2.99,13.08-2,3.36-4.62,6.01-7.87,7.95-3.25,1.94-6.96,3.25-11.11,3.93-4.16.68-8.41,1.03-12.74,1.03-3.88,0-7.41-.69-10.6-2.06-3.19-1.37-5.93-3.29-8.21-5.76-2.28-2.46-4.05-5.33-5.3-8.59-1.26-3.26-1.88-6.79-1.88-10.57v-7.73h25.99v-9.06h-30.44c-3.19,0-6.78.2-10.77.6-3.99.4-7.75.37-11.29-.09-3.53-.45-6.53-1.65-8.98-3.59-2.45-1.94-3.68-5.24-3.68-9.92Zm49.42,56.77h-23.43c-3.65,0-7.04-.68-10.17-2.05-3.14-1.37-5.87-3.22-8.21-5.56-2.34-2.33-4.19-5.07-5.56-8.21-1.37-3.13-2.05-6.52-2.05-10.17v-13h34.71c0,4.22-.03,8.12-.09,11.71-.06,3.59.28,6.98,1.03,10.17.74,3.19,2.14,6.18,4.19,8.98,2.05,2.79,5.24,5.5,9.58,8.12Z"/>
        <path class="cls-2" d="m472.3,15.98c-1.37-3.21-3.25-5.99-5.64-8.33-2.4-2.35-5.19-4.22-8.38-5.59-.4-.17-.8-.33-1.21-.48-.36-.14-.73-.27-1.1-.38-.07-.03-.14-.05-.21-.07-.3-.09-.6-.18-.9-.26-.38-.11-.77-.2-1.16-.28-.14-.04-.28-.07-.42-.09-1.03-.21-2.07-.35-3.12-.42-.28-.03-.55-.05-.83-.05-.38-.02-.76-.03-1.14-.03h-16.76c.05.03.1.05.14.08.48.28.95.56,1.4.84.67.42,1.3.84,1.91,1.25.02.02.05.04.08.06.2.15.41.29.61.44.38.27.74.55,1.1.83.25.2.5.4.74.61.82.69,1.56,1.4,2.21,2.11.28.3.54.6.79.91,1.99,2.46,3.42,5.1,4.27,7.9.86,2.81,1.31,5.82,1.37,9.02.06,3.21.09,6.76.09,10.66h28.21v-8.59c0-3.55-.68-6.94-2.05-10.14Zm-53.78,9.97c-6.91-6.08-7.19-19.16-6.82-25.95h-36.36c0,5.84.48,10.94,1.45,15.29s2.66,7.96,5.05,10.83c2.39,2.86,5.64,5.01,9.75,6.44,4.1,1.43,9.29,2.15,15.56,2.15v58.53c0,3.65.68,7.03,2.05,10.16,1.37,3.13,3.22,5.86,5.56,8.19,2.33,2.33,5.07,4.18,8.2,5.55,3.14,1.36,6.53,2.04,10.18,2.04h8.72V35.34c-8.82-.54-17-3.82-23.34-9.39Zm21.29-10.31c-1.37-3.02-3.22-5.7-5.56-8.04-2.34-2.33-5.02-4.18-8.04-5.55-2.46-1.11-5-1.77-7.65-1.97-.61-.06-1.22-.08-1.84-.08h-2s0,.05-.01.08c-.34,6.29-.15,18.39,5.79,23.61,5.8,5.09,13.27,8.11,21.36,8.65v-7.21c0-3.3-.68-6.47-2.05-9.49Z"/>
        <path class="cls-1" d="m510.62,16.07c-1.37-3.21-3.25-5.99-5.64-8.34-2.39-2.35-5.19-4.21-8.38-5.59-3.19-1.37-6.56-2.06-10.09-2.06h-16.76c3.99,2.29,6.99,4.67,8.98,7.13,1.99,2.47,3.42,5.1,4.28,7.91.85,2.81,1.31,5.81,1.36,9.02.06,3.21.09,6.76.09,10.65h28.21v-8.59c0-3.55-.68-6.93-2.05-10.13Zm-32.49-.34c-1.37-3.02-3.22-5.7-5.55-8.04-2.34-2.33-5.02-4.19-8.04-5.56-3.02-1.36-6.19-2.05-9.49-2.05h-40.34c-.34,6.29-.15,18.39,5.79,23.61,5.8,5.09,13.27,8.11,21.36,8.65,1.17.09,2.34.12,3.53.09l.05,2.36h.03v58.54c0,3.64.69,7.03,2.05,10.15,1.37,3.13,3.22,5.86,5.56,8.2,2.34,2.33,5.07,4.18,8.21,5.54,3.13,1.37,6.52,2.05,10.17,2.05h8.72V25.22c0-3.31-.68-6.47-2.05-9.49Z"/>
        <path class="cls-1" d="m472.3,15.98c-1.37-3.21-3.25-5.99-5.64-8.33-2.39-2.35-5.19-4.21-8.38-5.59-3.19-1.37-6.56-2.06-10.09-2.06h-16.76c3.99,2.29,6.98,4.67,8.98,7.13,1.99,2.46,3.42,5.1,4.27,7.91.85,2.81,1.31,5.81,1.37,9.02.06,3.21.09,6.76.09,10.65h28.21v-8.59c0-3.55-.68-6.93-2.05-10.14Z"/>
        <path class="cls-1" d="m522.57,0h73.7c3.53,0,6.9.68,10.09,2.05,3.19,1.37,5.98,3.25,8.38,5.64s4.27,5.19,5.64,8.38c1.37,3.19,2.05,6.56,2.05,10.09v38.47c0,2.97-.49,5.81-1.45,8.55-.97,2.74-2.34,5.21-4.1,7.44-1.77,2.22-3.88,4.13-6.33,5.73-2.45,1.6-5.1,2.74-7.95,3.42l19.84,29.58h-41.55l-19.32-28.73v-34.71h26.16v-21.2c-5.59,0-11.09.17-16.5.51-5.42.34-10.55.46-15.39.34-4.85-.11-9.29-.66-13.34-1.62-4.05-.97-7.55-2.74-10.52-5.3-2.97-2.57-5.27-6.13-6.93-10.69-1.65-4.56-2.48-10.54-2.48-17.96Zm34.71,119.36h-8.72c-3.65,0-7.04-.68-10.17-2.05-3.14-1.37-5.87-3.22-8.21-5.56-2.34-2.33-4.19-5.07-5.56-8.21-1.37-3.13-2.05-6.52-2.05-10.17V24.45c2.39,3.76,4.76,6.67,7.1,8.72,2.34,2.05,4.87,3.5,7.61,4.36,2.74.86,5.73,1.34,8.98,1.45,3.25.12,6.93.17,11.03.17v80.2Z"/>
        <path class="cls-1" d="m730.16,81.91v37.45h-34.71v-28.73h-30.27v28.73h-8.72c-3.65,0-7.04-.68-10.17-2.05-3.14-1.37-5.87-3.22-8.21-5.56-2.34-2.33-4.19-5.07-5.56-8.21-1.37-3.13-2.05-6.52-2.05-10.17V25.99c0-3.53.68-6.9,2.05-10.09,1.37-3.19,3.22-5.96,5.56-8.29,2.34-2.34,5.07-4.19,8.21-5.56C649.42.68,652.81,0,656.46,0h47.71c3.53,0,6.9.68,10.09,2.05,3.19,1.37,5.96,3.22,8.29,5.56,2.33,2.34,4.19,5.1,5.56,8.29,1.37,3.19,2.05,6.56,2.05,10.09v40.18c-2.28-3.76-4.62-6.67-7.01-8.72-2.39-2.05-4.96-3.51-7.7-4.36-2.74-.85-5.76-1.34-9.06-1.45-3.31-.11-6.95-.17-10.94-.17v-16.76h-30.27v21.2c3.53,0,7.58-.14,12.14-.43,4.56-.28,9.23-.43,14.02-.43s9.52.34,14.19,1.03c4.67.68,8.83,2,12.48,3.93,3.65,1.94,6.58,4.65,8.81,8.12,2.22,3.48,3.33,8.07,3.33,13.77Z"/>
        <path class="cls-1" d="m802.67,84.65v-4.28h34.71v13c0,3.65-.68,7.04-2.05,10.17-1.37,3.14-3.22,5.87-5.56,8.21s-5.1,4.19-8.29,5.56c-3.19,1.37-6.56,2.05-10.09,2.05h-47.71c-3.65,0-7.04-.68-10.17-2.05-3.14-1.37-5.87-3.22-8.21-5.56-2.34-2.33-4.19-5.07-5.56-8.21-1.37-3.13-2.05-6.52-2.05-10.17V26.16c0-3.53.68-6.9,2.05-10.09,1.37-3.19,3.22-5.96,5.56-8.29,2.33-2.33,5.07-4.19,8.21-5.56,3.13-1.37,6.52-2.05,10.17-2.05h23.43c-4.79,2.74-8.44,6.04-10.94,9.92-2.51,3.88-3.76,8.61-3.76,14.19v60.36h30.27Zm0-49.76h-25.99v-8.72c0-3.42.65-6.7,1.97-9.83,1.31-3.13,3.1-5.9,5.39-8.29,2.28-2.39,4.93-4.3,7.95-5.73,3.02-1.42,6.3-2.14,9.83-2.14h9.58c3.53,0,6.9.68,10.09,2.05,3.19,1.37,5.96,3.22,8.29,5.56,2.33,2.34,4.19,5.1,5.56,8.29,1.37,3.19,2.05,6.56,2.05,10.09v13h-34.71v-4.28Z"/>
        <path class="cls-1" d="m880.47,43.43h30.44V.17h34.71v41.21c0,5.47-1.23,9.69-3.68,12.65-2.45,2.97-6.13,5.42-11.03,7.35,5.02,1.94,8.72,4.36,11.11,7.27,2.39,2.91,3.59,7.1,3.59,12.57v38.13h-34.71v-41.21c-3.53,0-7.61.14-12.23.43-4.62.29-9.35.4-14.19.34-4.85-.06-9.58-.43-14.19-1.11s-8.75-1.99-12.4-3.93c-3.65-1.94-6.58-4.64-8.81-8.12-2.22-3.48-3.33-8.01-3.33-13.59V.17h34.71v43.26Zm0,75.92h-8.72c-3.65,0-7.04-.68-10.17-2.05-3.14-1.37-5.87-3.22-8.21-5.56-2.34-2.33-4.19-5.07-5.56-8.21-1.37-3.13-2.05-6.52-2.05-10.17v-25.65c2.39,3.88,4.76,6.81,7.1,8.81,2.33,2,4.87,3.45,7.61,4.36,2.74.91,5.73,1.43,8.98,1.54,3.25.11,6.93.17,11.03.17v36.77Z"/>
      </g>
    </g>
  </g>
</svg>